<svg xmlns="http://www.w3.org/2000/svg" xmlns:xlink="http://www.w3.org/1999/xlink"><symbol viewBox="0 0 120 50.999" id="elle" xmlns="http://www.w3.org/2000/svg"><path d="M52.956 39.059c-.089 2.383-.181 4.847-1.137 6.896-1.07 2.478-3.551 3.887-7.586 4.31a13.35 13.35 0 0 1-1.808.001V.679h3.662V0H32.903l.003.686h3.601v49.579H32.86v.732h20.554V37.816h-.409l-.049 1.243zM87.771 39.059c-.088 2.383-.181 4.847-1.136 6.896-1.07 2.478-3.551 3.887-7.585 4.31-.057.008-.94.065-1.809.001V.679h3.663V0H67.719l.002.686h3.602v49.579h-3.647v.732H88.23V37.816h-.409l-.05 1.243zM20.095 39.094c-.089 2.383-.181 4.846-1.136 6.896-1.4 3.241-5 3.977-7.585 4.248-.057.008-.938.065-1.809.001V25.616c.832-.012 2.168.083 2.482.16 1.28.266 2.422 1.535 2.788 2.61.554 1.64.592 3.431.631 5.327l.025 1.068h.423V16.013h-.423l-.025 1.068c-.04 1.896-.077 3.688-.631 5.327-.417 1.228-1.615 2.337-2.785 2.58-.308.076-1.626.194-2.485.188V.781a13.537 13.537 0 0 1 1.804 0c2.687.282 6.179 1.302 7.589 4.569.957 2.052 1.049 4.515 1.138 6.898l.05 1.243h.388V.007L.043.006v.06l.002.661h3.501l.1.025v49.486H0v.752h20.554V37.851h-.409l-.05 1.243zM119.592 37.861l-.051 1.244c-.088 2.382-.18 4.846-1.135 6.896-1.4 3.242-5.001 3.977-7.586 4.248a13.35 13.35 0 0 1-1.808.001V25.628c.831-.012 2.169.083 2.482.16 1.28.265 2.421 1.535 2.787 2.609.554 1.64.593 3.43.631 5.326l.026 1.07.423-.001V16.023h-.423l-.026 1.069c-.038 1.896-.077 3.688-.631 5.326-.417 1.228-1.615 2.337-2.785 2.58-.307.075-1.626.193-2.485.188V.791a13.537 13.537 0 0 1 1.804 0c2.685.282 6.178 1.302 7.589 4.569.956 2.051 1.048 4.515 1.136 6.897l.051 1.244h.387V.018L99.49.017v.059l.002.661h3.501l.1.025v49.485h-3.647v.752H120V37.86l-.408.001z"/><path d="M83.688 20.836h2.264c.496 0 2.409.13 2.409 2.234 0 1.016-.569 2.092-2.663 2.221l3.002 3.817h-.969l-2.905-3.805h-.314v3.805h-.823v-8.272zm1.67 3.806c1.9 0 2.155-.91 2.155-1.572 0-1.371-.98-1.572-1.961-1.572h-1.041v3.144h.847zM95.805 20.836v5.188c0 .673-.072 3.321-3.002 3.321S89.8 26.698 89.8 26.024v-5.188h.823v5.306c0 .319.024 2.541 2.179 2.541s2.179-2.222 2.179-2.541v-5.306h.824z"/></symbol><symbol viewBox="0 0 10 18" id="fb" xmlns="http://www.w3.org/2000/svg"><path fill-rule="evenodd" d="M6.143 18V9.789h2.791l.417-3.2H6.143V4.546c0-.926.261-1.558 1.606-1.558l1.715-.001V.126A23.232 23.232 0 0 0 6.964 0C4.491 0 2.798 1.491 2.798 4.229v2.36H0v3.2h2.798V18h3.345z"/></symbol><symbol viewBox="0 0 539.415 90.187" id="marie-claire" xmlns="http://www.w3.org/2000/svg"><path d="M.376 89.332s.271-.97.383-1.614c.113-.646.16-2.172.16-2.172l.169-41.737-.169-5.308c0-2.715-.919-4.595-.919-4.595l20.824-11.44v11.25c.375-.478 7.644-11.382 19.199-9.958C51.579 25.18 51.842 33.85 52.058 33.794c.489-.101 7.57-11.438 18.713-9.992 10.177 1.314 11.818 8.946 11.818 11.729v51.041s.159 1.214.216 1.401l.383 1.359s-21.085.12-21.047 0c0 0 .384-.579.497-1.158.131-.757.216-2.014.216-2.014l-.328-40.983c-.215-1.29-.749-4.196-4.146-4.861-4.577-.914-6.322 5.563-6.322 5.563l-.423 40.626s.067 1.012.293 1.669l.402 1.158H30.963s.3-.702.402-1.346c.113-.647.085-1.37.085-1.37V45.355c-.215-1.035-.909-4.852-4.52-4.852-3.331 0-5.507 4.72-5.948 7.178l-.328 38.833.328 1.524.441 1.292c0 .002-21.001.091-21.047.002M107.66 75.109c4.156 6.367 10.141 1.415 10.582.38 0 0-4.909-18.749-5.51-19.006 0 0-10.558 5.776-5.072 18.626m23.113 13.966c-2.289-.523-4.081-1.491-4.681-1.88-1.351-.869-4.361-3.94-4.361-3.94s-.329.135-1.097.646c-.759.524-6.116 4.173-8.396 5.04-4.737 1.815-10.028 1.536-13.629-.121-10.514-4.854-10.683-15.4-10.787-17.98-.113-2.582-.46-13.578 8.451-19.407 6.81-4.463 15.421-5.174 15.421-5.174s-1.521-9.181-6.708-11.764c-5.826-2.915-11.284.769-11.284.769V25.049s7.307-3.106 13.854-2.97c6.539.121 10.355 1.29 12.756 2.458 2.392 1.158 8.939 5.429 11.228 17.458l3.592 23.279c.554 3.752.984 8.535 2.842 11.383 1.517 2.337 3.222 2.278 3.998 2.218.169-.014.296-.025.364-.014v10.472c.001-.001-9.266.254-11.563-.258m14.886.257l.488-.97.282-1.29.159-47.536s-.272-3.494-.657-4.595l-.76-2.002 22.024-11.25v9.503c1.031-1.035 2.617-3.171 4.464-5.23 1.857-2.069 5.02-5.04 9.164-4.662 4.249.389 5.619 2.257 5.619 2.257l-4.361 16.76s-4.633-1.169-7.691-.646c-3.048.512-4.474 1.936-5.562 3.871-1.078 1.904-1.632 7.891-1.632 9.192v34.271s.215 1.225.384 1.547l.432.78h-22.353zm40.998 0s.16-.392.375-1.292c.226-.902.113-1.724.113-1.724l-.113-53.892 21.153-10.992-.02 64.649c0 .822.178 1.703.244 1.891l.544 1.359h-22.296zm46.3-34.663l14.07-4.74s.853-17.113-7.223-16.467c-8.067.645-6.979 21.142-6.847 21.207m13.722 23.156c9.596.902 13.629-3.372 13.629-3.372v11.128c-.543.523-5.891 3.494-16.471 3.751-10.571.255-15.148-3.228-16.236-3.751-1.097-.512-11.78-8.277-13.854-23.155-2.072-14.867 3.603-25.737 3.603-25.737s5.542-12.419 19.716-15c14.172-2.593 21.629 5.663 24.529 10.994 4.493 8.213 6.339 20.764 6.339 20.764s-32.81 10.67-32.922 11.049c-.115.388 2.072 12.417 11.667 13.329m-48.043-57.15c-6.687 0-11.612-4.895-11.612-10.404C187.024 4.765 191.949 0 198.636 0c6.678 0 11.725 4.62 11.725 10.126-.001 5.509-5.047 10.549-11.725 10.549M421.072 89.355s.44-.968.525-1.325l.122-1.324-.048-53.098 21.087-11.796-.01 64.661c0 .422.347 1.778.347 1.778.085.413.44 1.104.44 1.104h-22.463zm-15.72-.39c-2.29-.512-4.089-1.479-4.681-1.868-1.35-.881-4.361-3.949-4.361-3.949s-.328.133-1.098.645c-.761.522-6.105 4.172-8.394 5.052-4.737 1.804-10.029 1.526-13.63-.134-10.515-4.852-10.684-15.389-10.786-17.981-.115-2.581-.461-13.563 8.44-19.395 6.821-4.463 15.43-5.174 15.43-5.174s-1.528-9.181-6.707-11.772c-5.814-2.904-11.283.777-11.283.777V24.95s7.306-3.104 13.846-2.981c6.547.132 10.364 1.29 12.755 2.458 2.403 1.169 8.948 5.431 11.237 17.459l3.594 23.29c.542 3.75.984 8.533 2.841 11.371 1.849 2.848 3.977 2.137 4.362 2.203v10.482c0 .001-9.277.258-11.565-.267m-16.847-32.268c-1.182.635-11.096 6.353-6.088 18.137 2.009 3.062 4.438 3.395 6.427 2.85 1.941-.534 3.404-1.882 3.695-2.371-.281-1.435-3.461-17.537-4.034-18.616m44.263-35.707c-6.678 0-11.611-4.896-11.611-10.405 0-5.507 4.934-10.27 11.611-10.27 6.68 0 11.736 4.617 11.736 10.126 0 5.507-5.057 10.549-11.736 10.549M332.001 86.706s-4.418 2.849-14.397 2.972c-12.063.156-17.55-5.229-17.55-5.229s-9.595-6.866-10.797-26.006c-.327-18.493 5.891-25.603 7.421-27.549 1.36-1.747 8.562-10.171 20.495-9.569 4.812.234 13.131 3.037 13.131 3.037l-.046 11.061c-.171 0-5.233-2.069-8.725-2.204-3.488-.121-6.219 1.947-8.179 4.273-1.961 2.326-4.361 9.447-4.033 17.202.263 7.402 3.03 13.967 3.799 15.391.704 1.303 4.681 7.313 10.918 7.766 4.38.302 7.748-2.336 8.067-2.458l-.104 11.313zm4.577 2.561l.16-1.068c.15-.935.17-1.681.17-1.681l-.057-68.755c-.216-1.938-.826-3.428-1.688-4.396 0 0 22.726-12.417 22.652-12.129l.11 85.047c.075.935.349 2.036.349 2.036.112.389.384 1.034.384 1.034l-22.08-.088zm168.79-34.795c.769 0 13.525-4.207 14.068-4.729.546-.512.855-17.126-7.213-16.48-8.065.645-7.614 21.209-6.855 21.209m-56.551-21.576l22.192-11.572c.113.066 0 9.891 0 9.891l4.306-5.297c1.847-2.069 5.064-4.74 9.22-4.594 4.514.156 5.338 2.391 5.338 2.391l-4.249 16.369s-4.531-.979-7.589-.455c-3.048.511-4.465 1.935-5.563 3.881-1.068 1.893-2.713 7.824-2.713 9.114l1.25 33.827s.169 1.426.216 1.681c.198.912.441 1.225.441 1.225H449.37s.271-.646.431-1.479c.227-1.157.246-3.239.246-3.239l-.074-44.942s0-2.715-.386-4.34c-.386-1.617-.77-2.461-.77-2.461m69.842 44.866c9.595.9 13.63-3.661 13.63-3.661v11.416c-.546.523-5.892 3.495-16.463 3.75-10.579.255-15.158-3.227-16.245-3.75-1.098-.512-11.78-8.277-13.855-23.156-2.063-14.866 3.604-25.737 3.604-25.737s5.542-12.406 19.715-15.001c13.706-2.503 21.151 6.077 24.528 10.994 3.377 4.919 6.247 20.375 5.796 20.82-.271.291-32.264 10.616-32.377 10.994-.113.388 2.072 12.417 11.667 13.331"/></symbol><symbol viewBox="0 0 30 60" id="next" xmlns="http://www.w3.org/2000/svg"><path d="M.988 1.002c-.66.668-.989 1.459-.989 2.373v53.25c0 .914.329 1.705.989 2.373C1.648 59.667 2.43 60 3.333 60c.902 0 1.684-.333 2.343-1.001l23.336-26.625c.66-.669.989-1.459.989-2.374s-.329-1.705-.989-2.373L5.676 1.002C5.017.335 4.235 0 3.333 0 2.43 0 1.648.335.988 1.002z"/></symbol><symbol id="nioxin" viewBox="0 0 257.2 26.66" xmlns="http://www.w3.org/2000/svg"><defs><style>.ecls-2{fill:url(#eUnbenannter_Verlauf_3)}</style><linearGradient id="eUnbenannter_Verlauf_3" x1="104.24" y1="26.66" x2="104.24" gradientUnits="userSpaceOnUse"><stop offset="0" stop-color="#fff"/><stop offset=".03" stop-color="#e6e6e6"/><stop offset=".1" stop-color="#b1b1b1"/><stop offset=".17" stop-color="#838383"/><stop offset=".23" stop-color="#5d5d5d"/><stop offset=".3" stop-color="#404040"/><stop offset=".37" stop-color="#2c2c2c"/><stop offset=".44" stop-color="#1f1f1f"/><stop offset=".5" stop-color="#1b1b1b"/><stop offset=".56" stop-color="#1f1f1f"/><stop offset=".63" stop-color="#2c2c2c"/><stop offset=".7" stop-color="#404040"/><stop offset=".77" stop-color="#5d5d5d"/><stop offset=".83" stop-color="#838383"/><stop offset=".9" stop-color="#b1b1b1"/><stop offset=".97" stop-color="#e6e6e6"/><stop offset="1" stop-color="#fff"/></linearGradient></defs><path d="M114.91 6.13H113v-1h5v1h-2v5.12h-1.08zM119.59 5.14h1.08v2.54h2.92V5.14h1.08v6.12h-1.08V8.68h-2.92v2.58h-1.08zM126.9 5.14h4.54v1H128v1.55h3v1h-3v1.64h3.51v1h-4.61zM136.51 5.14h1l3.28 4.23V5.14h1.06v6.12h-.9l-3.38-4.36v4.35h-1.06zM143.32 6.51a1.46 1.46 0 0 1 2.91 0 1.46 1.46 0 0 1-2.91 0zm2.28 0a.83.83 0 1 0-1.65 0 .83.83 0 1 0 1.65 0zM149.07 6.19l-1.1.31-.23-.87 1.64-.52h.75v6.16h-1.07zM152.18 5.39l-.64.18-.13-.51 1-.31h.44v3.59h-.62zM157.25 10.36l.65-.77a2.82 2.82 0 0 0 1.93.8c.66 0 1.08-.31 1.08-.77 0-.44-.25-.67-1.38-.94-1.3-.31-2-.7-2-1.83A1.87 1.87 0 0 1 159.58 5a3.39 3.39 0 0 1 2.22.77l-.58.81a2.78 2.78 0 0 0-1.66-.58c-.63 0-1 .32-1 .73 0 .47.28.68 1.45 1s2 .78 2 1.79c0 1.15-.9 1.83-2.19 1.83a3.77 3.77 0 0 1-2.57-.99zM165.89 5.09h1l2.69 6.16h-1.14l-.62-1.48h-2.89l-.63 1.48h-1.1zm1.54 3.73l-1.06-2.45-1 2.45zM171.19 5.14h1.08v5.14h3.22v1h-4.29zM176.7 8.21a3.2 3.2 0 0 1 6.4 0 3.2 3.2 0 0 1-6.4 0zm5.27 0A2.1 2.1 0 0 0 179.89 6a2.07 2.07 0 0 0-2.06 2.16 2.1 2.1 0 0 0 2.08 2.18A2.07 2.07 0 0 0 182 8.21zM185 5.14h1l3.28 4.23V5.14h1.06v6.12h-.9l-3.35-4.36v4.35H185zM195.7 5.14h2.74a2.21 2.21 0 0 1 1.6.54 1.37 1.37 0 0 1 .41 1 1.46 1.46 0 0 1-.87 1.36 1.5 1.5 0 0 1 1.22 1.49c0 1.09-.9 1.68-2.26 1.68h-2.84zm2.53 2.58c.69 0 1.15-.27 1.15-.83 0-.48-.38-.78-1.07-.78h-1.55v1.61zm.32 2.59c.73 0 1.18-.29 1.18-.84 0-.52-.41-.82-1.26-.82h-1.71v1.65zM202.69 5.14h2.73a2.47 2.47 0 0 1 1.77.61 1.85 1.85 0 0 1 .51 1.32 1.84 1.84 0 0 1-1.46 1.85l1.65 2.32h-1.27l-1.5-2.13h-1.35v2.13h-1.08zm2.65 3c.77 0 1.26-.4 1.26-1 0-.66-.47-1-1.27-1h-1.57v2.03zM212 5.09h1l2.69 6.16h-1.14l-.62-1.48H211l-.63 1.48h-1.1zm1.54 3.73l-1.06-2.45-1 2.45zM217.26 5.14h1l3.28 4.23V5.14h1.06v6.12h-.9l-3.38-4.36v4.35h-1.06zM224.83 5.14h2.28a3.05 3.05 0 0 1 3.25 3 3.06 3.06 0 0 1-3.25 3.06h-2.28zm2.28 5.14a2 2 0 0 0 2.12-2.06 2 2 0 0 0-2.12-2.08h-1.21v4.16zM113.4 15.38h4.6v1h-3.48V18h3.09v1h-3.09v2.5h-1.12zM119.31 18.46a3.2 3.2 0 0 1 6.4 0 3.2 3.2 0 0 1-6.4 0zm5.27 0a2.1 2.1 0 0 0-2.08-2.18 2.07 2.07 0 0 0-2.06 2.16 2.1 2.1 0 0 0 2.08 2.18 2.07 2.07 0 0 0 2.06-2.16zM127.64 15.38h2.73a2.46 2.46 0 0 1 1.77.61 1.85 1.85 0 0 1 .51 1.32 1.84 1.84 0 0 1-1.46 1.85l1.65 2.32h-1.27l-1.5-2.13h-1.35v2.15h-1.08zm2.65 3c.77 0 1.26-.4 1.26-1 0-.66-.47-1-1.27-1h-1.56v2.05zM139.23 16.38h-1.94v-1h5v1h-1.94v5.12h-1.08zM143.91 15.38H145v2.54h2.92v-2.54H149v6.12h-1.07v-2.58H145v2.58h-1.08zM151.25 15.38h1.07v6.12h-1.07zM154.28 18.46a3.1 3.1 0 0 1 3.16-3.17 3.19 3.19 0 0 1 2.4 1l-.69.8a2.43 2.43 0 0 0-1.71-.76 2.05 2.05 0 0 0-2 2.16 2.07 2.07 0 0 0 2 2.18 2.4 2.4 0 0 0 1.76-.8l.69.7a3.16 3.16 0 0 1-2.48 1.08 3.08 3.08 0 0 1-3.13-3.19zM161.58 15.38h1.08v3.08l2.91-3.08h1.32L164.34 18l2.66 3.5h-1.3l-2.09-2.75-1 1v1.75h-1.08zM168.54 15.38h4.54v1h-3.46v1.59h3.07v1h-3.07v1.64h3.51v1h-4.58zM175.05 15.38h2.73a2.46 2.46 0 0 1 1.77.61 1.85 1.85 0 0 1 .51 1.32 1.84 1.84 0 0 1-1.46 1.85l1.65 2.32H179l-1.5-2.13h-1.35v2.15h-1.08zm2.65 3c.77 0 1.26-.4 1.26-1 0-.66-.47-1-1.27-1h-1.56v2.05zM181.64 22.32c.53-.11.79-.38.74-.82h-.45v-1.2h1.16v1a1.27 1.27 0 0 1-1.35 1.45zM188.24 15.38h4.56v1h-3.48V18h3.09v1h-3.09v2.5h-1.08zM194.43 18.91v-3.53h1.07v3.48c0 1.14.59 1.75 1.55 1.75s1.54-.58 1.54-1.71v-3.52h1.08v3.47A2.44 2.44 0 0 1 197 21.6a2.41 2.41 0 0 1-2.57-2.69zM201.83 15.38h1.07v5.14h3.22v1h-4.29zM207.77 15.38h1.08v5.14h3.22v1h-4.29zM213.71 15.38h4.54v1h-3.46v1.59h3.07v1h-3.07v1.64h3.51v1h-4.58zM220.22 15.38h2.73a2.46 2.46 0 0 1 1.77.61 1.85 1.85 0 0 1 .51 1.32 1.84 1.84 0 0 1-1.46 1.85l1.65 2.32h-1.27l-1.5-2.13h-1.35v2.15h-1.08zm2.65 3c.77 0 1.26-.4 1.26-1 0-.66-.47-1-1.27-1h-1.56v2.05zM230.31 15.38h1.08v2.54h2.92v-2.54h1.07v6.12h-1.08v-2.58h-2.92v2.58h-1.08zM239.68 15.34h1l2.69 6.16h-1.14l-.62-1.5h-2.89l-.63 1.48H237zm1.54 3.73l-1.06-2.45-1 2.45zM245 15.38h1.07v6.12H245zM248.34 15.38h2.73a2.47 2.47 0 0 1 1.77.61 1.85 1.85 0 0 1 .51 1.32 1.84 1.84 0 0 1-1.46 1.85l1.65 2.32h-1.27l-1.5-2.13h-1.35v2.15h-1.08zm2.65 3c.77 0 1.26-.4 1.26-1 0-.66-.47-1-1.27-1h-1.57v2.05zM254.62 18.1l1.23-1c.49-.41.67-.64.67-1a.54.54 0 0 0-.58-.56c-.33 0-.55.18-.83.54l-.44-.35A1.46 1.46 0 0 1 256 15a1.07 1.07 0 0 1 1.17 1c0 .56-.3.87-.93 1.38l-.73.61h1.7v.55h-2.58zM17 17.57c0 .86 0 4.37.08 5a.94.94 0 0 1-.88.4c-.41-.6-1.16-1.57-3-3.92l-6-7.63C5.44 9.34 4.59 8.28 4.15 7.85c-.08 0-.08.31-.08 1.83v5.57c0 2.14 0 4.77.46 5.63a1.59 1.59 0 0 0 1.32.71l.57.09c.24.2.21.74-.05.83-1-.06-2-.08-2.95-.08s-1.78 0-2.68.08a.63.63 0 0 1-.06-.83l.57-.14c.49-.11 1-.2 1.14-.65a24.76 24.76 0 0 0 .33-5.63V8.48c0-2.23 0-2.69-.85-3.51A4 4 0 0 0 .5 4.39l-.38-.08c-.18-.17-.15-.74.1-.83a29.84 29.84 0 0 0 3.05.09c.54 0 1.16 0 1.78-.09.45 1.23 3.26 4.83 4.17 5.92l2.58 3.08c1.09 1.31 3.49 4.34 3.75 4.51.08-.09.08-.23.08-.69v-5.56c0-2.14 0-4.77-.49-5.63a1.54 1.54 0 0 0-1.29-.71l-.6-.08c-.23-.2-.2-.74.06-.83 1 .06 2 .09 3 .09s1.78 0 2.71-.09a.63.63 0 0 1 .05.83l-.59.14c-.49.12-.93.2-1.11.66C17 6 17 8.48 17 10.74zm9-9.89c0-3 .24-3.11 1.45-3.29l.55-.08c.18-.2.16-.72 0-.83-1.14.06-2.3.09-3.44.09s-2.35 0-3.49-.09c-.21.11-.23.63-.05.83l.57.08c1.21.18 1.41.26 1.41 3.29v10.63c0 3-.24 3.11-1.45 3.29l-.57.09c-.18.2-.15.72.05.83 1.14-.06 2.35-.08 3.49-.08s2.3 0 3.44.08c.21-.11.23-.63 0-.83l-.57-.09c-1.21-.17-1.45-.26-1.45-3.29zm21.51 5.37c0-5.2-3.06-9.94-9-9.94-5.39 0-9.19 4.32-9.19 10.14 0 5.09 3.34 9.63 9.14 9.63 5.19 0 9-4.2 9-9.83m-9.32-8.8c4.08 0 5.83 5 5.83 9.31 0 5.74-2.36 8.17-5.29 8.17-4.39 0-5.91-5.37-5.91-9.31 0-6.09 2.8-8.17 5.37-8.17m9.86.26c.8.2 1.31.72 2.09 1.94 1 1.54 2.62 4.43 3.83 6.34a1.41 1.41 0 0 1 .29.72 2.12 2.12 0 0 1-.39.83c-1.34 1.92-3 4.37-3.55 5.2a3.88 3.88 0 0 1-2.7 2l-.69.14a.7.7 0 0 0 .1.83q1.23-.09 2.54-.08c1.06 0 2.11 0 3 .08.23-.08.26-.63 0-.83l-.67-.11c-.36-.06-.67-.14-.67-.34a1.8 1.8 0 0 1 .33-.83c1-1.74 2.45-4.11 3.5-5.66 1.08 1.68 1.85 3.06 2.5 4.08l.43.72a4.51 4.51 0 0 1 .75 1.57c0 .2-.2.29-.54.37l-.93.2a.61.61 0 0 0 .05.83c1.29-.06 2.39-.08 3.66-.08s2.39 0 3.62.08a.64.64 0 0 0 .05-.83l-.6-.11A3 3 0 0 1 61.72 20c-1.18-1.71-2.78-4.34-4.32-6.82a2.33 2.33 0 0 1-.41-1 2.21 2.21 0 0 1 .38-.83c1-1.6 2.14-3.28 3.14-4.66 1.13-1.54 1.55-2 2.57-2.2l.75-.17a.62.62 0 0 0-.08-.83c-.92.06-1.62.09-2.49.09s-1.69 0-2.7-.09a.54.54 0 0 0-.05.83l.57.14c.41.12.72.17.77.37a2.25 2.25 0 0 1-.34.74c-.59 1-2.77 4.6-3.39 5.4-.57-.8-2.29-3.71-2.93-4.8-.51-.89-.64-1.2-.64-1.43s.33-.31.85-.37l.49-.06c.18-.2.18-.72-.05-.83-.72.06-1.85.09-3.21.09-1.18 0-2.19 0-3.35-.09a.6.6 0 0 0-.07.83zm23.2 3.17c0-3 .23-3.11 1.45-3.29l.57-.08c.18-.2.15-.72-.05-.83-1.14.06-2.3.09-3.44.09s-2.35 0-3.49-.09a.66.66 0 0 0 0 .83l.56.08c1.22.17 1.45.26 1.45 3.29v10.63c0 3-.23 3.11-1.45 3.29l-.56.09a.66.66 0 0 0 0 .83c1.14-.06 2.35-.08 3.49-.08s2.3 0 3.44.08c.21-.11.23-.63.05-.83l-.57-.09c-1.21-.17-1.45-.26-1.45-3.29zm20.55 3.06c0-2.26 0-4.74.36-5.63.18-.46.62-.54 1.11-.66l.59-.14a.64.64 0 0 0-.05-.83c-.93.06-1.6.09-2.71.09s-2 0-3-.09c-.26.09-.28.63-.05.83l.6.08a1.54 1.54 0 0 1 1.29.71c.46.86.49 3.49.49 5.63v5.57c0 .46 0 .6-.07.69-.26-.17-2.67-3.2-3.76-4.51L84 9.4c-.9-1.09-3.72-4.69-4.16-5.91-.62.06-1.24.09-1.78.09a29.9 29.9 0 0 1-3.06-.1c-.26.09-.28.66-.1.83l.39.08a4 4 0 0 1 1.37.61c.88.83.85 1.28.85 3.51v6.77a24.76 24.76 0 0 1-.33 5.63c-.18.45-.65.54-1.14.65l-.57.14a.63.63 0 0 0 .05.83c.9-.06 1.61-.08 2.69-.08s2 0 2.95.08c.26-.08.28-.63.05-.83l-.57-.09a1.59 1.59 0 0 1-1.32-.71c-.44-.86-.47-3.49-.47-5.63V9.68c0-1.51 0-1.83.08-1.83.44.43 1.29 1.48 2.95 3.6l6 7.63c1.86 2.34 2.61 3.32 3 3.92a1 1 0 0 0 .88-.4c-.08-.65-.08-4.17-.08-5zm2.72 9.44a1.38 1.38 0 1 0 1.4 1.37 1.39 1.39 0 0 0-1.4-1.37m0 .28a1.1 1.1 0 1 1-1.06 1.1 1.06 1.06 0 0 1 1.06-1.1m-.22 1.26h.15c.17 0 .26.07.28.22a1.2 1.2 0 0 0 .11.33h.34a1 1 0 0 1-.1-.34.4.4 0 0 0-.25-.33.35.35 0 0 0 .29-.32.38.38 0 0 0-.13-.3.85.85 0 0 0-.48-.1 2.79 2.79 0 0 0-.53 0v1.37h.32zm0-.62h.18c.2 0 .29.08.29.21s-.14.2-.32.2h-.15z"/><path class="ecls-2" d="M104.17 0h.14v26.66h-.14z"/></symbol><symbol viewBox="0 0 29.995 59.995" id="prev" xmlns="http://www.w3.org/2000/svg"><path d="M29.006 58.993c.66-.668.989-1.459.989-2.373V3.375c0-.914-.329-1.705-.989-2.373S27.564 0 26.662 0s-1.684.334-2.343 1.002L.99 27.624c-.66.669-.99 1.459-.99 2.374 0 .914.33 1.705.99 2.373l23.329 26.622c.659.668 1.44 1.002 2.343 1.002s1.683-.335 2.344-1.002z"/></symbol><symbol viewBox="0 0 143 23" id="psy" xmlns="http://www.w3.org/2000/svg"><path d="M41.932 11.681c0-8.383 1.021-10.683 3.383-10.683 2.394 0 3.543 2.36 3.543 6.99h.957C49.847 2.42 48.314 0 44.899 0c-3.957 0-6.319 4.267-6.319 11.681C38.58 19.43 41.134 23 44.964 23c3.351 0 5.138-2.604 5.105-8.594h-.957c0 5.084-1.404 7.594-3.766 7.594-2.074 0-3.414-1.693-3.414-10.319zM61.271 22.848h.958V.151h-.958v9.987h-6.382V.151h-3.192v22.697h3.192V10.986h6.382zM91.314 23c3.479 0 5.649-3.33 5.649-11.47C96.965 3.601 95.178 0 91.252 0c-3.67 0-6.096 4.206-6.096 11.529 0 7.838 2.651 11.471 6.158 11.471zm4.694-11.5c0 7.293-1.915 10.5-4.31 10.5-1.563 0-3.19-1.754-3.19-10.47 0-9.109 1.372-10.531 3.19-10.531 2.616 0 4.309 3.238 4.31 10.501zM70.284 23c3.479 0 5.649-3.33 5.649-11.47C75.934 3.601 74.146 0 70.221 0c-3.67 0-6.096 4.206-6.096 11.529 0 7.838 2.649 11.471 6.159 11.471zm4.693-11.5c0 7.293-1.915 10.5-4.31 10.5-1.563 0-3.19-1.754-3.19-10.47 0-9.109 1.372-10.531 3.19-10.531 2.617 0 4.31 3.238 4.31 10.501zM78.04 22.848h7.787V22h-4.596V.151H78.04zM119.209 22.848h7.787V22H122.4V10.441h4.118v-.848H122.4V.999h4.437V.151h-7.628zM113.368 22.848h3.193V.151h-3.193zM34.892 22.848v-8.776L38.722.151h-1.053l-3.352 12.378L30.871.151h-3.319L31.7 14.072v8.776zM9.265 13.256c4.563 0 6.766-2.604 6.766-6.568 0-3.934-2.202-6.537-6.766-6.537H5.69v22.697h3.191v-9.592h.384zm.063-12.227c3.862 0 5.713 2.148 5.713 5.659 0 3.541-1.883 5.689-5.713 5.689h-.446V1.029h.446zM20.307 3.964c0-1.906.862-2.966 2.362-2.966 2.297 0 3.383 2.059 3.383 6.083h.957C27.041 2.149 25.573 0 22.189 0c-2.808 0-4.786 1.906-4.786 5.023 0 6.112 7.021 7.474 7.021 13.769 0 2.147-1.596 3.207-3.031 3.207-2.521 0-4.245-1.813-4.245-6.386h-.958C16.158 20.76 18.2 23 21.615 23c3.511 0 5.713-2.088 5.713-5.508 0-5.569-7.021-8.111-7.021-13.528zM130.698 3.904c0-1.877.894-2.905 2.426-2.905 2.329 0 3.446 2.028 3.446 6.083h.957C137.561 2.149 136.061 0 132.645 0c-2.84 0-4.852 1.906-4.852 5.023 0 6.234 6.99 7.625 6.99 14.042 0 1.664-.895 2.935-2.713 2.935-2.361 0-3.989-1.813-3.989-6.386h-.957c-.032 5.146 1.851 7.354 5.073 7.386 3.414.028 5.49-2.026 5.49-5.326.001-5.66-6.989-8.293-6.989-13.77zM108.07 22.848h2.714V12.256h-5.873v.848h2.682v4.328c0 3.389-1.054 4.568-2.426 4.568-1.946 0-2.937-1.693-2.937-10.319 0-8.383 1.117-10.683 3.701-10.683 2.267 0 3.383 2.36 3.383 6.99h.959C110.305 2.42 108.807 0 105.518 0c-4.147 0-6.638 4.267-6.638 11.681 0 7.749 2.297 11.319 5.904 11.319 1.627 0 2.776-1 3.095-2.088l.191 1.936zM1.95 22.813h2.446v-.451H2.36v-.932h2.036v-.453H1.95v1.836zm1.801-4.038a.686.686 0 0 1 .268.543c0 .389-.293.785-.836.785-.451 0-.854-.304-.854-.769 0-.084.018-.349.274-.562h-.557c-.121.213-.15.406-.15.57 0 .33.092.619.322.852.194.199.514.371.957.371.36 0 .664-.104.936-.371.194-.194.341-.44.341-.85 0-.25-.065-.434-.143-.572h-.558v.003zm-1.801-.451h2.446v-.32L2.76 16.732h1.636v-.453H1.95v.32l1.628 1.273H1.95v.452zm2.446-2.377v-.541l-.895-.535.895-.508v-.543l-1.291.793L1.95 13.9v.543l.76.428-.76.406v.543l1.155-.693 1.291.82zm-2.5-3.451c0 .73.535 1.236 1.279 1.236.745 0 1.276-.506 1.276-1.236 0-.731-.531-1.238-1.276-1.238-.744 0-1.279.507-1.279 1.238zm2.123 0c0 .451-.349.771-.844.771s-.847-.32-.847-.771c0-.453.352-.772.847-.772s.844.319.844.772zM1.95 10.631h1.401c.23 0 .443-.003.568.114a.28.28 0 0 1 .088.209.47.47 0 0 1-.021.129h.41a.81.81 0 0 0 .021-.191.666.666 0 0 0-.161-.462c-.224-.258-.557-.25-.811-.25H2.36v-.675h2.036v-.452H1.95v1.578zm-.054-3.223c0 .729.535 1.237 1.279 1.237.745 0 1.276-.508 1.276-1.237 0-.73-.531-1.238-1.276-1.238-.744-.001-1.279.507-1.279 1.238zm2.123 0c0 .451-.349.771-.844.771s-.847-.32-.847-.771c0-.453.352-.772.847-.772s.844.319.844.772zM1.95 4.529v1.23h2.446v-.452H2.36v-.778h-.41zm0-.326h2.446v-.32L2.761 2.61h1.636v-.451H1.95v.319L3.578 3.75H1.95v.453zm0-4.052v.672c0 .194.019.414.188.594.113.122.301.23.568.23.282 0 .484-.123.59-.262a.589.589 0 0 0 .11-.254l.99.688v-.541L3.45.686V.603h.946V.151H1.95zm.389.452h.737v.133c0 .091 0 .445-.37.445-.363 0-.367-.354-.367-.439V.603z"/></symbol><symbol viewBox="0 0 21 17" id="tw" xmlns="http://www.w3.org/2000/svg"><path fill-rule="evenodd" d="M20.931 2.013a8.59 8.59 0 0 1-2.466.676A4.307 4.307 0 0 0 20.353.315a8.62 8.62 0 0 1-2.727 1.04A4.286 4.286 0 0 0 14.492 0a4.294 4.294 0 0 0-4.184 5.27A12.198 12.198 0 0 1 1.456.786a4.29 4.29 0 0 0 1.33 5.73A4.279 4.279 0 0 1 .84 5.979c-.002.018-.002.036-.002.053a4.296 4.296 0 0 0 3.446 4.209 4.311 4.311 0 0 1-1.94.074 4.298 4.298 0 0 0 4.011 2.98 8.614 8.614 0 0 1-5.332 1.837c-.347 0-.688-.02-1.024-.06A12.15 12.15 0 0 0 6.583 17C14.482 17 18.8 10.462 18.8 4.789c0-.186-.004-.37-.013-.555a8.704 8.704 0 0 0 2.143-2.22"/></symbol><symbol viewBox="0 0 25 14" id="vk" xmlns="http://www.w3.org/2000/svg"><path fill-rule="evenodd" d="M11.895 13.812h1.453s.439-.048.664-.29c.206-.221.199-.638.199-.638s-.028-1.95.877-2.238c.892-.283 2.037 1.884 3.252 2.718.917.631 1.616.493 1.616.493l3.246-.045s1.699-.106.894-1.44c-.067-.11-.47-.988-2.414-2.794-2.037-1.89-1.764-1.584.688-4.851 1.494-1.992 2.091-3.208 1.904-3.728-.177-.496-1.276-.364-1.276-.364l-3.655.023S19.07.62 18.87.74c-.196.118-.322.391-.322.391s-.579 1.54-1.35 2.851c-1.628 2.764-2.28 2.91-2.545 2.739-.62-.4-.465-1.607-.465-2.465 0-2.68.406-3.796-.79-4.085C13 .077 12.706.012 11.69.003c-1.305-.013-2.408.003-3.034.31-.416.203-.736.658-.54.684.241.031.788.147 1.078.542.374.51.361 1.654.361 1.654s.217 3.153-.502 3.544c-.494.27-1.17-.28-2.62-2.788-.743-1.283-1.306-2.703-1.306-2.703S5.02.98 4.827.838C4.593.667 4.266.612 4.266.612L.792.635S.27.65.08.876c-.171.201-.014.619-.014.619s2.72 6.362 5.799 9.568c2.824 2.942 6.03 2.749 6.03 2.749"/></symbol></svg>