<?xml version="1.0" encoding="iso-8859-1"?>
<!-- Generator: Adobe Illustrator 16.0.3, SVG Export Plug-In . SVG Version: 6.00 Build 0)  -->
<!DOCTYPE svg PUBLIC "-//W3C//DTD SVG 1.1//EN" "http://www.w3.org/Graphics/SVG/1.1/DTD/svg11.dtd" [
	<!ENTITY ns_flows "http://ns.adobe.com/Flows/1.0/">
	<!ENTITY ns_extend "http://ns.adobe.com/Extensibility/1.0/">
	<!ENTITY ns_ai "http://ns.adobe.com/AdobeIllustrator/10.0/">
	<!ENTITY ns_graphs "http://ns.adobe.com/Graphs/1.0/">
]>
<svg version="1.1" xmlns:x="&ns_extend;" xmlns:i="&ns_ai;" xmlns:graph="&ns_graphs;"
	 xmlns="http://www.w3.org/2000/svg" xmlns:xlink="http://www.w3.org/1999/xlink" xmlns:a="http://ns.adobe.com/AdobeSVGViewerExtensions/3.0/"
	 x="0px" y="0px" width="539.415px" height="90.187px" viewBox="0 0 539.415 90.187"
	 style="enable-background:new 0 0 539.415 90.187;" xml:space="preserve">
<g id="Layer_2">
</g>
<g id="Layer_1">
	<g>
		<path d="M0.376,89.332c0,0,0.271-0.97,0.383-1.614c0.113-0.646,0.16-2.172,0.16-2.172l0.169-41.737l-0.169-5.308
			C0.919,35.786,0,33.906,0,33.906l20.824-11.44v11.25c0.375-0.478,7.644-11.382,19.199-9.958
			C51.579,25.18,51.842,33.85,52.058,33.794c0.489-0.101,7.57-11.438,18.713-9.992c10.177,1.314,11.818,8.946,11.818,11.729v51.041
			c0,0,0.159,1.214,0.216,1.401l0.383,1.359c0,0-21.085,0.12-21.047,0c0,0,0.384-0.579,0.497-1.158
			c0.131-0.757,0.216-2.014,0.216-2.014l-0.328-40.983c-0.215-1.29-0.749-4.196-4.146-4.861c-4.577-0.914-6.322,5.563-6.322,5.563
			l-0.423,40.626c0,0,0.067,1.012,0.293,1.669l0.402,1.158H30.963c0,0,0.3-0.702,0.402-1.346c0.113-0.647,0.085-1.37,0.085-1.37
			V45.355c-0.215-1.035-0.909-4.852-4.52-4.852c-3.331,0-5.507,4.72-5.948,7.178l-0.328,38.833l0.328,1.524l0.441,1.292
			C21.423,89.332,0.422,89.421,0.376,89.332 M107.66,75.109c4.156,6.367,10.141,1.415,10.582,0.38c0,0-4.909-18.749-5.51-19.006
			C112.732,56.483,102.174,62.259,107.66,75.109 M130.773,89.075c-2.289-0.523-4.081-1.491-4.681-1.88
			c-1.351-0.869-4.361-3.94-4.361-3.94s-0.329,0.135-1.097,0.646c-0.759,0.524-6.116,4.173-8.396,5.04
			c-4.737,1.815-10.028,1.536-13.629-0.121c-10.514-4.854-10.683-15.4-10.787-17.98c-0.113-2.582-0.46-13.578,8.451-19.407
			c6.81-4.463,15.421-5.174,15.421-5.174s-1.521-9.181-6.708-11.764c-5.826-2.915-11.284,0.769-11.284,0.769V25.049
			c0,0,7.307-3.106,13.854-2.97c6.539,0.121,10.355,1.29,12.756,2.458c2.392,1.158,8.939,5.429,11.228,17.458l3.592,23.279
			c0.554,3.752,0.984,8.535,2.842,11.383c1.517,2.337,3.222,2.278,3.998,2.218c0.169-0.014,0.296-0.025,0.364-0.014v10.472
			C142.337,89.332,133.07,89.587,130.773,89.075 M145.659,89.332l0.488-0.97l0.282-1.29l0.159-47.536c0,0-0.272-3.494-0.657-4.595
			l-0.76-2.002l22.024-11.25v9.503c1.031-1.035,2.617-3.171,4.464-5.23c1.857-2.069,5.02-5.04,9.164-4.662
			c4.249,0.389,5.619,2.257,5.619,2.257l-4.361,16.76c0,0-4.633-1.169-7.691-0.646c-3.048,0.512-4.474,1.936-5.562,3.871
			c-1.078,1.904-1.632,7.891-1.632,9.192v34.271c0,0,0.215,1.225,0.384,1.547l0.432,0.78H145.659z M186.657,89.332
			c0,0,0.16-0.392,0.375-1.292c0.226-0.902,0.113-1.724,0.113-1.724l-0.113-53.892l21.153-10.992l-0.02,64.649
			c0,0.822,0.178,1.703,0.244,1.891l0.544,1.359H186.657z M232.957,54.669l14.07-4.74c0,0,0.853-17.113-7.223-16.467
			C231.737,34.107,232.825,54.604,232.957,54.669 M246.679,77.825c9.596,0.902,13.629-3.372,13.629-3.372v11.128
			c-0.543,0.523-5.891,3.494-16.471,3.751c-10.571,0.255-15.148-3.228-16.236-3.751c-1.097-0.512-11.78-8.277-13.854-23.155
			c-2.072-14.867,3.603-25.737,3.603-25.737s5.542-12.419,19.716-15c14.172-2.593,21.629,5.663,24.529,10.994
			c4.493,8.213,6.339,20.764,6.339,20.764s-32.81,10.67-32.922,11.049C234.897,64.884,237.084,76.913,246.679,77.825
			 M198.636,20.675c-6.687,0-11.612-4.895-11.612-10.404C187.024,4.765,191.949,0,198.636,0c6.678,0,11.725,4.62,11.725,10.126
			C210.36,15.635,205.314,20.675,198.636,20.675"/>
		<path d="M421.072,89.355c0,0,0.44-0.968,0.525-1.325l0.122-1.324l-0.048-53.098l21.087-11.796l-0.01,64.661
			c0,0.422,0.347,1.778,0.347,1.778c0.085,0.413,0.44,1.104,0.44,1.104H421.072z M405.352,88.965
			c-2.29-0.512-4.089-1.479-4.681-1.868c-1.35-0.881-4.361-3.949-4.361-3.949s-0.328,0.133-1.098,0.645
			c-0.761,0.522-6.105,4.172-8.394,5.052c-4.737,1.804-10.029,1.526-13.63-0.134c-10.515-4.852-10.684-15.389-10.786-17.981
			c-0.115-2.581-0.461-13.563,8.44-19.395c6.821-4.463,15.43-5.174,15.43-5.174s-1.528-9.181-6.707-11.772
			c-5.814-2.904-11.283,0.777-11.283,0.777V24.95c0,0,7.306-3.104,13.846-2.981c6.547,0.132,10.364,1.29,12.755,2.458
			c2.403,1.169,8.948,5.431,11.237,17.459l3.594,23.29c0.542,3.75,0.984,8.533,2.841,11.371c1.849,2.848,3.977,2.137,4.362,2.203
			v10.482C416.917,89.233,407.64,89.49,405.352,88.965 M388.505,56.697c-1.182,0.635-11.096,6.353-6.088,18.137
			c2.009,3.062,4.438,3.395,6.427,2.85c1.941-0.534,3.404-1.882,3.695-2.371C392.258,73.878,389.078,57.776,388.505,56.697
			 M432.768,20.99c-6.678,0-11.611-4.896-11.611-10.405c0-5.507,4.934-10.27,11.611-10.27c6.68,0,11.736,4.617,11.736,10.126
			C444.504,15.948,439.447,20.99,432.768,20.99 M332.001,86.706c0,0-4.418,2.849-14.397,2.972
			c-12.063,0.156-17.55-5.229-17.55-5.229s-9.595-6.866-10.797-26.006c-0.327-18.493,5.891-25.603,7.421-27.549
			c1.36-1.747,8.562-10.171,20.495-9.569c4.812,0.234,13.131,3.037,13.131,3.037l-0.046,11.061c-0.171,0-5.233-2.069-8.725-2.204
			c-3.488-0.121-6.219,1.947-8.179,4.273c-1.961,2.326-4.361,9.447-4.033,17.202c0.263,7.402,3.03,13.967,3.799,15.391
			c0.704,1.303,4.681,7.313,10.918,7.766c4.38,0.302,7.748-2.336,8.067-2.458L332.001,86.706z M336.578,89.267l0.16-1.068
			c0.15-0.935,0.17-1.681,0.17-1.681l-0.057-68.755c-0.216-1.938-0.826-3.428-1.688-4.396c0,0,22.726-12.417,22.652-12.129
			l0.11,85.047c0.075,0.935,0.349,2.036,0.349,2.036c0.112,0.389,0.384,1.034,0.384,1.034L336.578,89.267z M505.368,54.472
			c0.769,0,13.525-4.207,14.068-4.729c0.546-0.512,0.855-17.126-7.213-16.48C504.158,33.908,504.609,54.472,505.368,54.472
			 M448.817,32.896l22.192-11.572c0.113,0.066,0,9.891,0,9.891l4.306-5.297c1.847-2.069,5.064-4.74,9.22-4.594
			c4.514,0.156,5.338,2.391,5.338,2.391l-4.249,16.369c0,0-4.531-0.979-7.589-0.455c-3.048,0.511-4.465,1.935-5.563,3.881
			c-1.068,1.893-2.713,7.824-2.713,9.114l1.25,33.827c0,0,0.169,1.426,0.216,1.681c0.198,0.912,0.441,1.225,0.441,1.225H449.37
			c0,0,0.271-0.646,0.431-1.479c0.227-1.157,0.246-3.239,0.246-3.239l-0.074-44.942c0,0,0-2.715-0.386-4.34
			C449.201,33.74,448.817,32.896,448.817,32.896 M518.659,77.762c9.595,0.9,13.63-3.661,13.63-3.661v11.416
			c-0.546,0.523-5.892,3.495-16.463,3.75c-10.579,0.255-15.158-3.227-16.245-3.75c-1.098-0.512-11.78-8.277-13.855-23.156
			c-2.063-14.866,3.604-25.737,3.604-25.737s5.542-12.406,19.715-15.001c13.706-2.503,21.151,6.077,24.528,10.994
			c3.377,4.919,6.247,20.375,5.796,20.82c-0.271,0.291-32.264,10.616-32.377,10.994C506.879,64.819,509.064,76.848,518.659,77.762"
			/>
	</g>
</g>
</svg>
