<svg id="Logo" xmlns="http://www.w3.org/2000/svg" xmlns:xlink="http://www.w3.org/1999/xlink" viewBox="0 0 257.2 26.66"><defs><style>.cls-1{fill:#1b1b1b;}.cls-2{fill:url(#Unbenannter_Verlauf_3);}</style><linearGradient id="Unbenannter_Verlauf_3" x1="104.24" y1="26.66" x2="104.24" gradientUnits="userSpaceOnUse"><stop offset="0" stop-color="#fff"/><stop offset="0.03" stop-color="#e6e6e6"/><stop offset="0.1" stop-color="#b1b1b1"/><stop offset="0.17" stop-color="#838383"/><stop offset="0.23" stop-color="#5d5d5d"/><stop offset="0.3" stop-color="#404040"/><stop offset="0.37" stop-color="#2c2c2c"/><stop offset="0.44" stop-color="#1f1f1f"/><stop offset="0.5" stop-color="#1b1b1b"/><stop offset="0.56" stop-color="#1f1f1f"/><stop offset="0.63" stop-color="#2c2c2c"/><stop offset="0.7" stop-color="#404040"/><stop offset="0.77" stop-color="#5d5d5d"/><stop offset="0.83" stop-color="#838383"/><stop offset="0.9" stop-color="#b1b1b1"/><stop offset="0.97" stop-color="#e6e6e6"/><stop offset="1" stop-color="#fff"/></linearGradient></defs><title>Nioxin_Brand_Logo</title><path d="M114.91,6.13H113v-1h5v1H116v5.12h-1.08Z"/><path d="M119.59,5.14h1.08V7.68h2.92V5.14h1.08v6.12h-1.08V8.68h-2.92v2.58h-1.08Z"/><path d="M126.9,5.14h4.54v1H128V7.69H131v1H128v1.64h3.51v1H126.9Z"/><path d="M136.51,5.14h1l3.28,4.23V5.14h1.06v6.12h-.9L137.57,6.9v4.35h-1.06Z"/><path d="M143.32,6.51v0a1.46,1.46,0,0,1,2.91,0v0a1.46,1.46,0,0,1-2.91,0Zm2.28,0v0a.83.83,0,1,0-1.65,0v0a.83.83,0,1,0,1.65,0Z"/><path d="M149.07,6.19l-1.1.31-.23-.87,1.64-.52h.75v6.16h-1.07Z"/><path d="M152.18,5.39l-.64.18-.13-.51,1-.31h.44V8.34h-.62Z"/><path d="M157.25,10.36l.65-.77a2.82,2.82,0,0,0,1.93.8c.66,0,1.08-.31,1.08-.77v0c0-.44-.25-.67-1.38-.94-1.3-.31-2-.7-2-1.83v0A1.87,1.87,0,0,1,159.58,5a3.39,3.39,0,0,1,2.22.77l-.58.81A2.78,2.78,0,0,0,159.56,6c-.63,0-1,.32-1,.73v0c0,.47.28.68,1.45,1s2,.78,2,1.79v0c0,1.15-.9,1.83-2.19,1.83A3.77,3.77,0,0,1,157.25,10.36Z"/><path d="M165.89,5.09h1l2.69,6.16h-1.14l-.62-1.48h-2.89l-.63,1.48h-1.1Zm1.54,3.73-1.06-2.45-1,2.45Z"/><path d="M171.19,5.14h1.08v5.14h3.22v1h-4.29Z"/><path d="M176.7,8.21v0a3.2,3.2,0,0,1,6.4,0v0a3.2,3.2,0,0,1-6.4,0Zm5.27,0v0A2.1,2.1,0,0,0,179.89,6a2.07,2.07,0,0,0-2.06,2.16v0a2.1,2.1,0,0,0,2.08,2.18A2.07,2.07,0,0,0,182,8.21Z"/><path d="M185,5.14h1l3.28,4.23V5.14h1.06v6.12h-.9L186.09,6.9v4.35H185Z"/><path d="M195.7,5.14h2.74a2.21,2.21,0,0,1,1.6.54,1.37,1.37,0,0,1,.41,1v0a1.46,1.46,0,0,1-.87,1.36,1.5,1.5,0,0,1,1.22,1.49v0c0,1.09-.9,1.68-2.26,1.68H195.7Zm2.53,2.58c.69,0,1.15-.27,1.15-.83v0c0-.48-.38-.78-1.07-.78h-1.55V7.72Zm.32,2.59c.73,0,1.18-.29,1.18-.84v0c0-.52-.41-.82-1.26-.82h-1.71V10.3Z"/><path d="M202.69,5.14h2.73a2.47,2.47,0,0,1,1.77.61,1.85,1.85,0,0,1,.51,1.32v0a1.84,1.84,0,0,1-1.46,1.85l1.65,2.32h-1.27l-1.5-2.13h-1.35v2.13h-1.08Zm2.65,3c.77,0,1.26-.4,1.26-1v0c0-.66-.47-1-1.27-1h-1.57V8.17Z"/><path d="M212,5.09h1l2.69,6.16h-1.14l-.62-1.48H211l-.63,1.48h-1.1Zm1.54,3.73-1.06-2.45-1,2.45Z"/><path d="M217.26,5.14h1l3.28,4.23V5.14h1.06v6.12h-.9L218.32,6.9v4.35h-1.06Z"/><path d="M224.83,5.14h2.28a3.05,3.05,0,0,1,3.25,3v0a3.06,3.06,0,0,1-3.25,3.06h-2.28Zm2.28,5.14a2,2,0,0,0,2.12-2.06v0a2,2,0,0,0-2.12-2.08h-1.21v4.16Z"/><path d="M113.4,15.38H118v1h-3.48V18h3.09v1h-3.09V21.5H113.4Z"/><path d="M119.31,18.46v0a3.2,3.2,0,0,1,6.4,0v0a3.2,3.2,0,0,1-6.4,0Zm5.27,0v0a2.1,2.1,0,0,0-2.08-2.18,2.07,2.07,0,0,0-2.06,2.16v0a2.1,2.1,0,0,0,2.08,2.18A2.07,2.07,0,0,0,124.58,18.46Z"/><path d="M127.64,15.38h2.73a2.46,2.46,0,0,1,1.77.61,1.85,1.85,0,0,1,.51,1.32v0a1.84,1.84,0,0,1-1.46,1.85l1.65,2.32h-1.27l-1.5-2.13h-1.35V21.5h-1.08Zm2.65,3c.77,0,1.26-.4,1.26-1v0c0-.66-.47-1-1.27-1h-1.56v2.05Z"/><path d="M139.23,16.38h-1.94v-1h5v1h-1.94V21.5h-1.08Z"/><path d="M143.91,15.38H145v2.54h2.92V15.38H149V21.5h-1.07V18.92H145V21.5h-1.08Z"/><path d="M151.25,15.38h1.07V21.5h-1.07Z"/><path d="M154.28,18.46v0a3.1,3.1,0,0,1,3.16-3.17,3.19,3.19,0,0,1,2.4,1l-.69.8a2.43,2.43,0,0,0-1.71-.76,2.05,2.05,0,0,0-2,2.16v0a2.07,2.07,0,0,0,2,2.18,2.4,2.4,0,0,0,1.76-.8l.69.7a3.16,3.16,0,0,1-2.48,1.08A3.08,3.08,0,0,1,154.28,18.46Z"/><path d="M161.58,15.38h1.08v3.08l2.91-3.08h1.32L164.34,18,167,21.5h-1.3l-2.09-2.75-1,1V21.5h-1.08Z"/><path d="M168.54,15.38h4.54v1h-3.46v1.59h3.07v1h-3.07v1.64h3.51v1h-4.58Z"/><path d="M175.05,15.38h2.73a2.46,2.46,0,0,1,1.77.61,1.85,1.85,0,0,1,.51,1.32v0a1.84,1.84,0,0,1-1.46,1.85l1.65,2.32H179l-1.5-2.13h-1.35V21.5h-1.08Zm2.65,3c.77,0,1.26-.4,1.26-1v0c0-.66-.47-1-1.27-1h-1.56v2.05Z"/><path d="M181.64,22.32c.53-.11.79-.38.74-.82h-.45V20.3h1.16v1a1.27,1.27,0,0,1-1.35,1.45Z"/><path d="M188.24,15.38h4.56v1h-3.48V18h3.09v1h-3.09V21.5h-1.08Z"/><path d="M194.43,18.91V15.38h1.07v3.48c0,1.14.59,1.75,1.55,1.75s1.54-.58,1.54-1.71V15.38h1.08v3.47A2.44,2.44,0,0,1,197,21.6,2.41,2.41,0,0,1,194.43,18.91Z"/><path d="M201.83,15.38h1.07v5.14h3.22v1h-4.29Z"/><path d="M207.77,15.38h1.08v5.14h3.22v1h-4.29Z"/><path d="M213.71,15.38h4.54v1h-3.46v1.59h3.07v1h-3.07v1.64h3.51v1h-4.58Z"/><path d="M220.22,15.38h2.73a2.46,2.46,0,0,1,1.77.61,1.85,1.85,0,0,1,.51,1.32v0a1.84,1.84,0,0,1-1.46,1.85l1.65,2.32h-1.27l-1.5-2.13h-1.35V21.5h-1.08Zm2.65,3c.77,0,1.26-.4,1.26-1v0c0-.66-.47-1-1.27-1h-1.56v2.05Z"/><path d="M230.31,15.38h1.08v2.54h2.92V15.38h1.07V21.5H234.3V18.92h-2.92V21.5h-1.08Z"/><path d="M239.68,15.34h1l2.69,6.16h-1.14L241.61,20h-2.89l-.63,1.48H237Zm1.54,3.73-1.06-2.45-1,2.45Z"/><path d="M245,15.38h1.07V21.5H245Z"/><path d="M248.34,15.38h2.73a2.47,2.47,0,0,1,1.77.61,1.85,1.85,0,0,1,.51,1.32v0a1.84,1.84,0,0,1-1.46,1.85l1.65,2.32h-1.27l-1.5-2.13h-1.35V21.5h-1.08Zm2.65,3c.77,0,1.26-.4,1.26-1v0c0-.66-.47-1-1.27-1h-1.57v2.05Z"/><path d="M254.62,18.1l1.23-1c.49-.41.67-.64.67-1a.54.54,0,0,0-.58-.56c-.33,0-.55.18-.83.54l-.44-.35A1.46,1.46,0,0,1,256,15,1.07,1.07,0,0,1,257.17,16h0c0,.56-.3.87-.93,1.38l-.73.61h1.7v.55h-2.58Z"/><path d="M17,17.57c0,.86,0,4.37.08,5a.94.94,0,0,1-.88.4c-.41-.6-1.16-1.57-3-3.92l-6-7.63C5.44,9.34,4.59,8.28,4.15,7.85c-.08,0-.08.31-.08,1.83v5.57c0,2.14,0,4.77.46,5.63a1.59,1.59,0,0,0,1.32.71l.57.09c.24.2.21.74-.05.83-1-.06-2-.08-2.95-.08s-1.78,0-2.68.08a.63.63,0,0,1-.06-.83l.57-.14c.49-.11,1-.2,1.14-.65a24.76,24.76,0,0,0,.33-5.63V8.48c0-2.23,0-2.69-.85-3.51A4,4,0,0,0,.5,4.39L.12,4.31c-.18-.17-.15-.74.1-.83a29.84,29.84,0,0,0,3.05.09c.54,0,1.16,0,1.78-.09C5.5,4.71,8.31,8.31,9.22,9.4l2.58,3.08c1.09,1.31,3.49,4.34,3.75,4.51.08-.09.08-.23.08-.69V10.74c0-2.14,0-4.77-.49-5.63a1.54,1.54,0,0,0-1.29-.71l-.6-.08c-.23-.2-.2-.74.06-.83,1,.06,2,.09,3,.09s1.78,0,2.71-.09a.63.63,0,0,1,.05.83l-.59.14c-.49.12-.93.2-1.11.66C17,6,17,8.48,17,10.74ZM26,7.68c0-3,.24-3.11,1.45-3.29L28,4.31c.18-.2.16-.72,0-.83-1.14.06-2.3.09-3.44.09s-2.35,0-3.49-.09c-.21.11-.23.63-.05.83l.57.08C22.8,4.57,23,4.65,23,7.68V18.31c0,3-.24,3.11-1.45,3.29l-.57.09c-.18.2-.15.72.05.83,1.14-.06,2.35-.08,3.49-.08s2.3,0,3.44.08c.21-.11.23-.63,0-.83l-.57-.09c-1.21-.17-1.45-.26-1.45-3.29Zm21.51,5.37c0-5.2-3.06-9.94-9-9.94-5.39,0-9.19,4.32-9.19,10.14,0,5.09,3.34,9.63,9.14,9.63,5.19,0,9-4.2,9-9.83m-9.32-8.8c4.08,0,5.83,5,5.83,9.31,0,5.74-2.36,8.17-5.29,8.17-4.39,0-5.91-5.37-5.91-9.31,0-6.09,2.8-8.17,5.37-8.17M48,4.51c.8.2,1.31.72,2.09,1.94,1,1.54,2.62,4.43,3.83,6.34a1.41,1.41,0,0,1,.29.72,2.12,2.12,0,0,1-.39.83c-1.34,1.92-3,4.37-3.55,5.2a3.88,3.88,0,0,1-2.7,2l-.69.14a.7.7,0,0,0,.1.83q1.23-.09,2.54-.08c1.06,0,2.11,0,3,.08.23-.08.26-.63,0-.83l-.67-.11c-.36-.06-.67-.14-.67-.34a1.8,1.8,0,0,1,.33-.83c1-1.74,2.45-4.11,3.5-5.66,1.08,1.68,1.85,3.06,2.5,4.08l.43.72a4.51,4.51,0,0,1,.75,1.57c0,.2-.2.29-.54.37l-.93.2a.61.61,0,0,0,.05.83c1.29-.06,2.39-.08,3.66-.08s2.39,0,3.62.08a.64.64,0,0,0,.05-.83L64,21.57A3,3,0,0,1,61.72,20c-1.18-1.71-2.78-4.34-4.32-6.82a2.33,2.33,0,0,1-.41-1,2.21,2.21,0,0,1,.38-.83c1-1.6,2.14-3.28,3.14-4.66,1.13-1.54,1.55-2,2.57-2.2l.75-.17a.62.62,0,0,0-.08-.83c-.92.06-1.62.09-2.49.09s-1.69,0-2.7-.09a.54.54,0,0,0-.05.83l.57.14c.41.12.72.17.77.37a2.25,2.25,0,0,1-.34.74c-.59,1-2.77,4.6-3.39,5.4-.57-.8-2.29-3.71-2.93-4.8-.51-.89-.64-1.2-.64-1.43s.33-.31.85-.37l.49-.06c.18-.2.18-.72-.05-.83-.72.06-1.85.09-3.21.09-1.18,0-2.19,0-3.35-.09a.6.6,0,0,0-.07.83Zm23.2,3.17c0-3,.23-3.11,1.45-3.29l.57-.08c.18-.2.15-.72-.05-.83-1.14.06-2.3.09-3.44.09s-2.35,0-3.49-.09a.66.66,0,0,0,0,.83l.56.08c1.22.17,1.45.26,1.45,3.29V18.31c0,3-.23,3.11-1.45,3.29l-.56.09a.66.66,0,0,0,0,.83c1.14-.06,2.35-.08,3.49-.08s2.3,0,3.44.08c.21-.11.23-.63.05-.83l-.57-.09c-1.21-.17-1.45-.26-1.45-3.29Zm20.55,3.06c0-2.26,0-4.74.36-5.63.18-.46.62-.54,1.11-.66l.59-.14a.64.64,0,0,0-.05-.83c-.93.06-1.6.09-2.71.09s-2,0-3-.09c-.26.09-.28.63-.05.83l.6.08a1.54,1.54,0,0,1,1.29.71c.46.86.49,3.49.49,5.63v5.57c0,.46,0,.6-.07.69-.26-.17-2.67-3.2-3.76-4.51L84,9.4c-.9-1.09-3.72-4.69-4.16-5.91-.62.06-1.24.09-1.78.09A29.9,29.9,0,0,1,75,3.48c-.26.09-.28.66-.1.83l.39.08A4,4,0,0,1,76.66,5c.88.83.85,1.28.85,3.51v6.77a24.76,24.76,0,0,1-.33,5.63c-.18.45-.65.54-1.14.65l-.57.14a.63.63,0,0,0,.05.83c.9-.06,1.61-.08,2.69-.08s2,0,2.95.08c.26-.08.28-.63.05-.83l-.57-.09a1.59,1.59,0,0,1-1.32-.71c-.44-.86-.47-3.49-.47-5.63V9.68c0-1.51,0-1.83.08-1.83.44.43,1.29,1.48,2.95,3.6l6,7.63c1.86,2.34,2.61,3.32,3,3.92a1,1,0,0,0,.88-.4c-.08-.65-.08-4.17-.08-5Zm2.72,9.44a1.38,1.38,0,1,0,1.4,1.37,1.39,1.39,0,0,0-1.4-1.37m0,.28a1.1,1.1,0,1,1-1.06,1.1,1.06,1.06,0,0,1,1.06-1.1m-.22,1.26h.15c.17,0,.26.07.28.22a1.2,1.2,0,0,0,.11.33h.34a1,1,0,0,1-.1-.34.4.4,0,0,0-.25-.33v0a.35.35,0,0,0,.29-.32.38.38,0,0,0-.13-.3.85.85,0,0,0-.48-.1,2.79,2.79,0,0,0-.53,0v1.37h.32Zm0-.62.18,0c.2,0,.29.08.29.21s-.14.2-.32.2h-.15Z"/><rect class="cls-2" x="104.17" width="0.14" height="26.66"/></svg>