<?xml version="1.0" encoding="iso-8859-1"?>
<!-- Generator: Adobe Illustrator 16.0.3, SVG Export Plug-In . SVG Version: 6.00 Build 0)  -->
<!DOCTYPE svg PUBLIC "-//W3C//DTD SVG 1.1//EN" "http://www.w3.org/Graphics/SVG/1.1/DTD/svg11.dtd" [
	<!ENTITY ns_flows "http://ns.adobe.com/Flows/1.0/">
	<!ENTITY ns_extend "http://ns.adobe.com/Extensibility/1.0/">
	<!ENTITY ns_ai "http://ns.adobe.com/AdobeIllustrator/10.0/">
	<!ENTITY ns_graphs "http://ns.adobe.com/Graphs/1.0/">
]>
<svg version="1.1" id="Layer_1" xmlns:x="&ns_extend;" xmlns:i="&ns_ai;" xmlns:graph="&ns_graphs;"
	 xmlns="http://www.w3.org/2000/svg" xmlns:xlink="http://www.w3.org/1999/xlink" xmlns:a="http://ns.adobe.com/AdobeSVGViewerExtensions/3.0/"
	 x="0px" y="0px" width="292.76px" height="22.876px" viewBox="0 0 292.76 22.876"
	 style="enable-background:new 0 0 292.76 22.876;" xml:space="preserve">
<path d="M97.41,19.297c0.036-0.012,0.097-0.016,0.182-0.016c0.207,0,0.304,0.081,0.304,0.202c0,0.138-0.146,0.194-0.328,0.194H97.41
	V19.297z M97.401,19.9h0.158c0.178,0,0.267,0.064,0.292,0.214c0.044,0.154,0.069,0.275,0.113,0.324h0.352
	c-0.032-0.049-0.061-0.13-0.101-0.336c-0.044-0.178-0.122-0.275-0.259-0.324v-0.016c0.174-0.053,0.292-0.167,0.292-0.312
	c0-0.13-0.061-0.239-0.138-0.296c-0.101-0.057-0.227-0.097-0.494-0.097c-0.231,0-0.413,0.017-0.543,0.041v1.341h0.328V19.9z
	 M97.624,18.665c0.632,0,1.089,0.482,1.089,1.081c0,0.587-0.458,1.061-1.077,1.061c-0.64,0-1.109-0.474-1.109-1.069
	C96.527,19.147,96.997,18.665,97.624,18.665 M97.624,18.398c-0.81,0-1.458,0.595-1.458,1.34c0,0.757,0.648,1.356,1.458,1.356
	c0.822,0,1.454-0.599,1.454-1.356C99.078,18.993,98.446,18.398,97.624,18.398 M94.818,9.177c0-2.207,0-4.633,0.376-5.5
	c0.182-0.446,0.64-0.526,1.15-0.64l0.612-0.142c0.214-0.194,0.158-0.668-0.053-0.81c-0.96,0.057-1.656,0.085-2.807,0.085
	c-1.041,0-2.033-0.028-3.069-0.085c-0.271,0.085-0.292,0.616-0.057,0.81l0.616,0.081c0.668,0.089,1.093,0.284,1.333,0.701
	c0.482,0.838,0.51,3.406,0.51,5.5v5.442c0,0.45,0,0.587-0.077,0.668c-0.267-0.17-2.753-3.126-3.879-4.41l-2.669-3.013
	c-0.936-1.061-3.847-4.581-4.301-5.779c-0.64,0.057-1.28,0.085-1.838,0.085c-0.672,0-2.142,0.028-3.159-0.085
	c-0.268,0.085-0.292,0.644-0.105,0.81l0.401,0.081c0.376,0.089,1.122,0.308,1.414,0.563c0.911,0.806,0.883,1.255,0.883,3.43v6.617
	c0,2.203,0,4.633-0.344,5.499c-0.19,0.442-0.668,0.527-1.174,0.64l-0.591,0.138c-0.215,0.194-0.162,0.668,0.057,0.81
	c0.936-0.053,1.656-0.081,2.778-0.081c1.013,0,2.053,0.028,3.042,0.081c0.271-0.081,0.295-0.616,0.057-0.81l-0.587-0.081
	c-0.668-0.085-1.122-0.279-1.364-0.697c-0.454-0.838-0.478-3.405-0.478-5.499V8.144c0-1.479,0-1.786,0.077-1.786
	c0.454,0.417,1.336,1.45,3.045,3.515l6.253,7.452c1.923,2.288,2.697,3.24,3.126,3.827c0.324,0.024,0.692-0.085,0.911-0.393
	c-0.085-0.64-0.085-4.074-0.085-4.913V9.177z M73.581,6.192c0-2.96,0.243-3.041,1.495-3.215l0.591-0.081
	c0.187-0.194,0.162-0.697-0.052-0.81c-1.175,0.057-2.377,0.085-3.556,0.085c-1.227,0-2.43-0.028-3.604-0.085
	c-0.21,0.113-0.243,0.616-0.053,0.81l0.587,0.081c1.255,0.174,1.494,0.255,1.494,3.215v10.379c0,2.957-0.239,3.042-1.494,3.211
	l-0.587,0.081c-0.19,0.194-0.158,0.701,0.053,0.81c1.174-0.053,2.43-0.081,3.604-0.081c1.179,0,2.381,0.028,3.556,0.081
	c0.214-0.109,0.239-0.616,0.052-0.81l-0.591-0.081c-1.251-0.17-1.495-0.255-1.495-3.211V6.192z M49.611,3.09
	c0.826,0.194,1.357,0.701,2.159,1.899c1.004,1.51,2.705,4.325,3.957,6.196c0.239,0.365,0.295,0.559,0.295,0.701
	c0,0.138-0.158,0.474-0.401,0.806c-1.385,1.871-3.082,4.272-3.665,5.082c-1.037,1.365-1.652,1.729-2.794,1.952l-0.717,0.138
	c-0.134,0.223-0.134,0.616,0.109,0.81c0.847-0.053,1.721-0.081,2.628-0.081c1.089,0,2.179,0.028,3.086,0.081
	c0.231-0.081,0.263-0.616,0.048-0.81l-0.692-0.109c-0.368-0.057-0.688-0.142-0.688-0.336s0.105-0.417,0.344-0.806
	c1.013-1.705,2.527-4.021,3.612-5.528c1.118,1.644,1.916,2.985,2.584,3.989l0.449,0.7c0.583,0.919,0.774,1.336,0.774,1.531
	c0,0.199-0.211,0.284-0.555,0.369l-0.964,0.19c-0.235,0.17-0.154,0.701,0.057,0.81c1.329-0.053,2.471-0.081,3.779-0.081
	c1.324,0,2.47,0.028,3.742,0.081c0.239-0.142,0.239-0.64,0.053-0.81l-0.66-0.109c-1.041-0.166-1.624-0.506-2.369-1.563
	c-1.223-1.677-2.867-4.24-4.463-6.67c-0.344-0.559-0.425-0.81-0.425-0.948c0-0.113,0.105-0.364,0.393-0.81
	c0.992-1.563,2.207-3.211,3.244-4.552c1.17-1.506,1.6-1.928,2.661-2.146l0.774-0.17c0.186-0.247,0.158-0.668-0.081-0.81
	c-0.956,0.057-1.677,0.085-2.58,0.085c-0.907,0-1.75-0.028-2.794-0.085c-0.292,0.17-0.292,0.616-0.053,0.81l0.587,0.142
	c0.425,0.114,0.745,0.166,0.797,0.365c-0.024,0.166-0.133,0.389-0.348,0.721c-0.611,0.952-2.863,4.495-3.507,5.277
	c-0.587-0.782-2.365-3.625-3.029-4.689c-0.53-0.867-0.664-1.17-0.664-1.397c0-0.194,0.344-0.304,0.879-0.36l0.502-0.057
	c0.19-0.194,0.19-0.697-0.053-0.81C54.875,2.142,53.705,2.17,52.3,2.17c-1.219,0-2.26-0.028-3.462-0.085
	c-0.235,0.113-0.284,0.587-0.073,0.81L49.611,3.09z M39.495,2.843c4.212,0,6.022,4.88,6.022,9.096c0,5.613-2.446,7.982-5.467,7.982
	c-4.536,0-6.107-5.244-6.107-9.096C33.943,4.88,36.838,2.843,39.495,2.843 M49.121,11.437c0-5.079-3.155-9.715-9.29-9.715
	c-5.568,0-9.493,4.216-9.493,9.91c0,4.969,3.45,9.407,9.444,9.407C45.14,21.038,49.121,16.936,49.121,11.437 M26.9,6.192
	c0-2.96,0.239-3.041,1.494-3.215l0.587-0.081c0.19-0.194,0.162-0.697-0.053-0.81c-1.174,0.057-2.377,0.085-3.552,0.085
	c-1.227,0-2.43-0.028-3.608-0.085c-0.21,0.113-0.239,0.616-0.052,0.81l0.587,0.081c1.255,0.174,1.499,0.255,1.499,3.215v10.379
	c0,2.957-0.243,3.042-1.499,3.211l-0.587,0.081c-0.187,0.194-0.158,0.701,0.052,0.81c1.179-0.053,2.43-0.081,3.608-0.081
	c1.174,0,2.377,0.028,3.552,0.081c0.214-0.109,0.243-0.616,0.053-0.81l-0.587-0.081c-1.255-0.17-1.494-0.255-1.494-3.211V6.192z
	 M17.537,15.846c0,0.838,0,4.272,0.081,4.913c-0.21,0.308-0.587,0.417-0.907,0.393c-0.425-0.587-1.203-1.539-3.126-3.827
	L7.332,9.873C5.623,7.808,4.744,6.775,4.287,6.358c-0.081,0-0.081,0.308-0.081,1.786v5.443c0,2.094,0.028,4.661,0.482,5.499
	c0.239,0.417,0.697,0.612,1.357,0.697l0.591,0.081c0.247,0.194,0.214,0.729-0.053,0.81c-0.984-0.053-2.029-0.081-3.045-0.081
	c-1.122,0-1.843,0.028-2.774,0.081c-0.215-0.142-0.271-0.616-0.057-0.81l0.587-0.138c0.506-0.113,0.984-0.198,1.179-0.64
	c0.344-0.866,0.344-3.296,0.344-5.499V6.97c0-2.175,0.029-2.625-0.878-3.43C1.642,3.284,0.897,3.065,0.521,2.977L0.12,2.896
	c-0.187-0.166-0.158-0.725,0.105-0.81C1.241,2.199,2.711,2.17,3.379,2.17c0.559,0,1.199-0.028,1.843-0.085
	C5.68,3.284,8.587,6.804,9.523,7.865l2.673,3.013c1.122,1.284,3.604,4.24,3.872,4.41c0.081-0.081,0.081-0.219,0.081-0.668V9.177
	c0-2.094-0.028-4.661-0.506-5.5c-0.239-0.417-0.672-0.612-1.336-0.701l-0.62-0.081c-0.235-0.194-0.21-0.725,0.061-0.81
	c1.037,0.057,2.029,0.085,3.069,0.085c1.15,0,1.843-0.028,2.807-0.085c0.214,0.142,0.263,0.616,0.048,0.81L19.06,3.037
	c-0.506,0.114-0.96,0.194-1.15,0.64c-0.373,0.867-0.373,3.292-0.373,5.5V15.846z"/>
<defs>
	<filter id="Adobe_OpacityMaskFilter" filterUnits="userSpaceOnUse" x="107.379" y="0" width="0.611" height="22.876">
		<feFlood  style="flood-color:white;flood-opacity:1" result="back"/>
		<feBlend  in="SourceGraphic" in2="back" mode="normal"/>
	</filter>
</defs>
<mask maskUnits="userSpaceOnUse" x="107.379" y="0" width="0.611" height="22.876" id="SVGID_1_">
	<g style="filter:url(#Adobe_OpacityMaskFilter);">
		
			<linearGradient id="SVGID_2_" gradientUnits="userSpaceOnUse" x1="-75.3735" y1="494.8882" x2="-71.3239" y2="494.8882" gradientTransform="matrix(0 -5.6492 -5.6492 0 2942.1042 -402.9208)">
			<stop  offset="0" style="stop-color:#000000"/>
			<stop  offset="0.5" style="stop-color:#FFFFFF"/>
			<stop  offset="1" style="stop-color:#000000"/>
			<a:midPointStop  offset="0" style="stop-color:#000000"/>
			<a:midPointStop  offset="0.5" style="stop-color:#000000"/>
			<a:midPointStop  offset="0.5" style="stop-color:#FFFFFF"/>
			<a:midPointStop  offset="0.5" style="stop-color:#FFFFFF"/>
			<a:midPointStop  offset="1" style="stop-color:#000000"/>
		</linearGradient>
		<rect x="0" y="-0.001" style="fill:url(#SVGID_2_);" width="292.761" height="741.584"/>
	</g>
</mask>
<g style="mask:url(#SVGID_1_);adobe-opacity-share:1;">
	<g style="adobe-opacity-share:0;">
		
			<line style="fill:none;stroke:#000000;stroke-width:0.6115;adobe-opacity-share:1;" x1="107.685" y1="0" x2="107.685" y2="22.876"/>
	</g>
</g>
<path d="M291.019,16.72h0.636l-0.13-1.105l0.907,0.66l0.328-0.551l-1.032-0.454l1.032-0.454l-0.328-0.551l-0.907,0.66l0.13-1.105
	h-0.636l0.125,1.105l-0.902-0.66l-0.328,0.551l1.032,0.454l-1.032,0.454l0.328,0.551l0.902-0.66L291.019,16.72z M287.124,16.72
	h0.636l-0.13-1.105l0.907,0.66l0.328-0.551l-1.033-0.454l1.033-0.454l-0.328-0.551l-0.907,0.66l0.13-1.105h-0.636l0.125,1.105
	l-0.903-0.66l-0.327,0.551l1.032,0.454l-1.032,0.454l0.327,0.551l0.903-0.66L287.124,16.72z M282.567,20.288
	c1.187,0,1.912-0.433,2.572-1.122l-0.717-0.725c-0.543,0.506-1.041,0.826-1.818,0.826c-1.215,0-2.094-1.017-2.094-2.256
	c0-1.259,0.879-2.255,2.094-2.255c0.725,0,1.268,0.316,1.773,0.786l0.717-0.822c-0.607-0.583-1.316-0.988-2.482-0.988
	c-1.924,0-3.272,1.474-3.272,3.28C279.339,18.851,280.716,20.288,282.567,20.288 M274.966,19.268c-1.26,0-2.159-1.024-2.159-2.256
	c0-1.251,0.879-2.255,2.139-2.255s2.158,1.021,2.158,2.255C277.104,18.259,276.225,19.268,274.966,19.268 M274.946,20.288
	c1.948,0,3.325-1.494,3.325-3.276c0-1.806-1.357-3.28-3.305-3.28c-1.948,0-3.325,1.495-3.325,3.28
	C271.641,18.814,272.998,20.288,274.946,20.288 M264.992,20.256c1.251,0,1.984-0.806,1.984-4.839v-0.571h2.19v5.337h1.114v-6.342
	h-4.35v1.248c0,3.798-0.596,4.204-1.239,4.204c-0.138,0-0.279-0.024-0.36-0.053l-0.109,0.915
	C264.392,20.199,264.745,20.256,264.992,20.256 M260.695,19.268c-1.26,0-2.154-1.024-2.154-2.256c0-1.251,0.879-2.255,2.138-2.255
	c1.26,0,2.155,1.021,2.155,2.255C262.833,18.259,261.955,19.268,260.695,19.268 M260.678,20.288c1.948,0,3.325-1.494,3.325-3.276
	c0-1.806-1.36-3.28-3.309-3.28s-3.325,1.495-3.325,3.28C257.37,18.814,258.731,20.288,260.678,20.288 M252.207,19.195v-1.742h1.766
	c0.879,0,1.309,0.32,1.309,0.854c0,0.587-0.462,0.887-1.224,0.887H252.207z M252.207,16.514v-1.688h1.604
	c0.717,0,1.114,0.308,1.114,0.81c0,0.595-0.479,0.878-1.195,0.878H252.207z M251.113,20.179h2.933c1.413,0,2.349-0.603,2.349-1.737
	c0-0.879-0.519-1.304-1.26-1.559c0.47-0.243,0.903-0.652,0.903-1.414c0-0.441-0.142-0.786-0.425-1.069
	c-0.36-0.36-0.932-0.559-1.656-0.559h-2.844V20.179z M241.354,20.183h1.275l1.677-2.401l1.668,2.401h1.313l-2.301-3.244l2.211-3.098
	h-1.279l-1.583,2.272l-1.58-2.272h-1.312l2.219,3.114L241.354,20.183z M239.098,20.183h1.105v-6.342h-1.105V20.183z M234.501,19.187
	v-2.094h1.413c0.843,0,1.324,0.353,1.324,1.004c0,0.717-0.481,1.089-1.304,1.089H234.501z M233.396,20.183h2.556
	c1.47,0,2.393-0.797,2.393-2.077c0-1.276-0.959-1.98-2.385-1.98h-1.458v-2.284h-1.105V20.183z M226.511,20.183h1.114v-2.677h3.028
	v2.677h1.114v-6.342h-1.114v2.637h-3.028v-2.637h-1.114V20.183z M218.651,20.183h1.094v-4.531l1.984,2.972h0.036l2-2.988v4.547
	h1.118v-6.342h-1.187l-1.932,2.997l-1.932-2.997h-1.183V20.183z M212.577,20.183h4.75v-0.996h-3.633v-1.705h3.18v-0.996h-3.18
	v-1.648h3.588v-0.997h-4.705V20.183z M207.567,19.187v-2.094h1.405c0.851,0,1.332,0.353,1.332,1.004
	c0,0.717-0.481,1.089-1.304,1.089H207.567z M206.461,20.183h2.556c1.47,0,2.393-0.797,2.393-2.077c0-1.276-0.959-1.98-2.381-1.98
	h-1.462v-2.284h-2.689v1.004h1.584V20.183z M200.318,19.187v-1.944h1.669c0.826,0,1.287,0.32,1.287,0.936
	c0,0.782-0.526,1.008-1.486,1.008H200.318z M199.216,20.183h2.814c1.45,0,2.357-0.688,2.357-1.96c0-1.223-0.907-1.919-2.301-1.919
	h-1.77v-1.458h3.629v-1.004h-4.73V20.183z M194.559,19.268c-1.259,0-2.158-1.024-2.158-2.256c0-1.251,0.879-2.255,2.138-2.255
	c1.26,0,2.159,1.021,2.159,2.255C196.698,18.259,195.819,19.268,194.559,19.268 M194.539,20.288c1.948,0,3.325-1.494,3.325-3.276
	c0-1.806-1.356-3.28-3.305-3.28s-3.324,1.495-3.324,3.28C191.235,18.814,192.591,20.288,194.539,20.288 M181.855,20.183h1.049
	l3.2-4.621v4.621h1.097v-6.342h-1.045l-3.203,4.629v-4.629h-1.098V20.183z M172.096,20.183h1.275l1.676-2.401l1.669,2.401h1.313
	l-2.301-3.244l2.211-3.098h-1.275l-1.588,2.272l-1.575-2.272h-1.316l2.223,3.114L172.096,20.183z M169.84,20.183h1.105v-6.342
	h-1.105V20.183z M165.248,19.187v-2.094h1.414c0.842,0,1.32,0.353,1.32,1.004c0,0.717-0.478,1.089-1.304,1.089H165.248z
	 M164.142,20.183h2.555c1.466,0,2.389-0.797,2.389-2.077c0-1.276-0.959-1.98-2.381-1.98h-1.458v-2.284h-1.105V20.183z
	 M159.829,20.183h1.122v-5.309h2.013v-1.033h-5.147v1.033h2.013V20.183z M154.528,20.288c1.187,0,1.912-0.433,2.572-1.122
	l-0.713-0.725c-0.546,0.506-1.044,0.826-1.822,0.826c-1.215,0-2.094-1.017-2.094-2.256c0-1.259,0.879-2.255,2.094-2.255
	c0.725,0,1.268,0.316,1.774,0.786l0.717-0.822c-0.607-0.583-1.312-0.988-2.482-0.988c-1.92,0-3.269,1.474-3.269,3.28
	C151.304,18.851,152.681,20.288,154.528,20.288 M146.501,20.28c0.826,0,1.478-0.409,2.013-1.486l2.47-4.953h-1.203l-1.741,3.686
	l-1.972-3.686h-1.251l2.645,4.799c-0.316,0.518-0.713,0.688-0.997,0.688c-0.279,0-0.526-0.052-0.777-0.198l-0.425,0.834
	C145.631,20.163,146.012,20.28,146.501,20.28 M140.022,20.183h1.105v-5.337h3.163v-1.004h-4.269V20.183z M132.976,17.02
	c-0.798,0-1.316-0.425-1.316-1.089c0-0.688,0.499-1.085,1.333-1.085h1.624v2.175H132.976z M130.319,20.183h1.316l1.575-2.195h1.405
	v2.195h1.105v-6.342h-2.818c-1.47,0-2.365,0.786-2.365,2.021c0,1.049,0.624,1.693,1.511,1.936L130.319,20.183z M123.88,20.256
	c1.248,0,1.984-0.806,1.984-4.839v-0.571h2.191v5.337h1.114v-6.342h-4.35v1.248c0,3.798-0.595,4.204-1.239,4.204
	c-0.138,0-0.283-0.024-0.364-0.053l-0.109,0.915C123.281,20.199,123.633,20.256,123.88,20.256 M118.052,19.187
	c0.434-0.879,0.688-2.15,0.688-3.616v-0.725h2.24v4.341H118.052z M116.25,21.54h0.976l0.109-1.357h4.467v1.357h0.923l0.154-2.353
	h-0.785v-5.346h-4.422v0.895c0,2.122-0.28,3.406-0.806,4.451h-0.615V21.54z"/>
<path d="M228.791,5.85h0.632l-0.126-1.105l0.907,0.66l0.324-0.551L229.496,4.4l1.032-0.454l-0.324-0.555l-0.907,0.664l0.126-1.105
	h-0.632l0.126,1.105l-0.907-0.664l-0.324,0.555l1.032,0.454l-1.032,0.454l0.324,0.551l0.907-0.66L228.791,5.85z M225.186,9.309
	h1.105V2.922h-0.781l-1.701,0.542l0.235,0.907l1.142-0.316V9.309z M219.035,6.21c-0.381,0-0.644-0.336-0.644-0.725
	c0-0.409,0.243-0.725,0.632-0.725c0.372,0,0.636,0.328,0.636,0.725S219.416,6.21,219.035,6.21 M219.023,6.818
	c0.761,0,1.332-0.599,1.332-1.34c0-0.745-0.559-1.333-1.32-1.333c-0.773,0-1.332,0.6-1.332,1.341
	C217.703,6.231,218.253,6.818,219.023,6.818 M217.836,8.041h2.364V7.353h-2.364V8.041z M212.037,9.309h1.134V4.85l2.937,4.458h0.968
	V2.967h-1.13v4.349l-2.847-4.349h-1.062V9.309z M203.605,8.313c0.434-0.879,0.689-2.146,0.689-3.612V3.975h2.235v4.337H203.605z
	 M201.803,10.669h0.977l0.108-1.361h4.468v1.361h0.923l0.154-2.357h-0.79V2.967h-4.418v0.899c0,2.118-0.284,3.406-0.806,4.447
	h-0.616V10.669z M195.64,9.309h1.113V6.636h3.029v2.673h1.113V2.967h-1.113v2.636h-3.029V2.967h-1.113V9.309z M189.569,9.309h4.751
	V8.313h-3.637V6.611h3.183V5.615h-3.183V3.963h3.588V2.967h-4.702V9.309z M184.632,6.263v-2.28h1.296
	c0.835,0,1.369,0.389,1.369,1.13c0,0.68-0.526,1.15-1.369,1.15H184.632z M183.519,9.309h1.113V7.271h1.26
	c1.397,0,2.539-0.745,2.539-2.167c0-1.296-0.936-2.138-2.413-2.138h-2.499V9.309z M178.19,8.313v-1.94h1.668
	c0.826,0,1.288,0.316,1.288,0.936c0,0.777-0.526,1.004-1.486,1.004H178.19z M177.084,9.309h2.818c1.449,0,2.356-0.688,2.356-1.956
	c0-1.223-0.907-1.919-2.3-1.919h-1.77V3.975h3.628V2.967h-4.733V9.309z M167.385,9.309h1.049l3.199-4.621v4.621h1.093V2.967h-1.041
	l-3.207,4.629V2.967h-1.094V9.309z M170.09,2.469c0.773,0,1.308-0.49,1.425-1.268l-0.672-0.129
	c-0.117,0.384-0.344,0.619-0.753,0.619c-0.405,0-0.64-0.235-0.749-0.619l-0.681,0.129C168.786,1.979,169.321,2.469,170.09,2.469
	 M164.647,9.309h1.105V2.967h-1.105V9.309z M160.055,8.313V6.219h1.413c0.842,0,1.32,0.356,1.32,1.008
	c0,0.713-0.478,1.085-1.304,1.085H160.055z M158.949,9.309h2.556c1.466,0,2.389-0.798,2.389-2.073c0-1.276-0.96-1.984-2.381-1.984
	h-1.458V2.967h-1.106V9.309z M152.061,9.309h1.118V6.636h3.025v2.673h1.114V2.967h-1.114v2.636h-3.025V2.967h-1.118V9.309z
	 M145.176,9.309h1.114V6.636h3.029v2.673h1.114V2.967h-1.114v2.636h-3.029V2.967h-1.114V9.309z M140.52,8.394
	c-1.26,0-2.155-1.025-2.155-2.256c0-1.251,0.879-2.256,2.138-2.256c1.26,0,2.155,1.025,2.155,2.256
	C142.658,7.389,141.779,8.394,140.52,8.394 M140.503,9.418c1.948,0,3.325-1.494,3.325-3.28c0-1.802-1.361-3.28-3.309-3.28
	c-1.948,0-3.325,1.494-3.325,3.28C137.194,7.94,138.555,9.418,140.503,9.418 M130.545,9.381c1.251,0,1.984-0.806,1.984-4.835V3.975
	h2.195v5.333h1.114V2.967h-4.35v1.251c0,3.794-0.599,4.204-1.239,4.204c-0.138,0-0.283-0.028-0.364-0.053l-0.109,0.915
	C129.95,9.329,130.302,9.381,130.545,9.381 M125.045,6.79l1.089-2.535l1.098,2.535H125.045z M122.846,9.309h1.142l0.652-1.531h2.997
	l0.644,1.531h1.178l-2.79-6.386h-1.033L122.846,9.309z M119.918,9.418c1.187,0,1.912-0.433,2.572-1.122l-0.713-0.725
	c-0.547,0.506-1.045,0.822-1.822,0.822c-1.215,0-2.094-1.013-2.094-2.256c0-1.259,0.879-2.256,2.094-2.256
	c0.725,0,1.268,0.316,1.773,0.79l0.717-0.826c-0.607-0.579-1.312-0.988-2.482-0.988c-1.919,0-3.268,1.478-3.268,3.28
	C116.695,7.976,118.072,9.418,119.918,9.418"/>
</svg>
