<?xml version="1.0" encoding="utf-8"?>
<!-- Generator: Adobe Illustrator 16.0.3, SVG Export Plug-In . SVG Version: 6.00 Build 0)  -->
<!DOCTYPE svg PUBLIC "-//W3C//DTD SVG 1.1//EN" "http://www.w3.org/Graphics/SVG/1.1/DTD/svg11.dtd">
<svg version="1.1" id="Layer_1" xmlns="http://www.w3.org/2000/svg" xmlns:xlink="http://www.w3.org/1999/xlink" x="0px" y="0px"
	 width="143px" height="23px" viewBox="0 0 143 23" enable-background="new 0 0 143 23" xml:space="preserve">
<g>
	<path d="M41.932,11.681c0-8.383,1.021-10.683,3.383-10.683c2.394,0,3.543,2.36,3.543,6.99h0.957C49.847,2.42,48.314,0,44.899,0
		c-3.957,0-6.319,4.267-6.319,11.681C38.58,19.43,41.134,23,44.964,23c3.351,0,5.138-2.604,5.105-8.594h-0.957
		c0,5.084-1.404,7.594-3.766,7.594C43.272,22,41.932,20.307,41.932,11.681L41.932,11.681z"/>
	<polygon points="61.271,22.848 62.229,22.848 62.229,0.151 61.271,0.151 61.271,10.138 54.889,10.138 54.889,0.151 51.697,0.151 
		51.697,22.848 54.889,22.848 54.889,10.986 61.271,10.986 	"/>
	<path d="M91.314,23c3.479,0,5.649-3.33,5.649-11.47C96.965,3.601,95.178,0,91.252,0c-3.67,0-6.096,4.206-6.096,11.529
		C85.156,19.367,87.807,23,91.314,23L91.314,23z M96.008,11.5c0,7.293-1.915,10.5-4.31,10.5c-1.563,0-3.19-1.754-3.19-10.47
		c0-9.109,1.372-10.531,3.19-10.531C94.314,0.999,96.007,4.237,96.008,11.5L96.008,11.5L96.008,11.5z"/>
	<path d="M70.284,23c3.479,0,5.649-3.33,5.649-11.47C75.934,3.601,74.146,0,70.221,0c-3.67,0-6.096,4.206-6.096,11.529
		C64.125,19.367,66.774,23,70.284,23L70.284,23z M74.977,11.5c0,7.293-1.915,10.5-4.31,10.5c-1.563,0-3.19-1.754-3.19-10.47
		c0-9.109,1.372-10.531,3.19-10.531C73.284,0.999,74.977,4.237,74.977,11.5L74.977,11.5z"/>
	<polygon points="78.04,22.848 85.827,22.848 85.827,22 81.231,22 81.231,0.151 78.04,0.151 	"/>
	<polygon points="119.209,22.848 126.996,22.848 126.996,22 122.4,22 122.4,10.441 126.518,10.441 126.518,9.593 122.4,9.593 
		122.4,0.999 126.837,0.999 126.837,0.151 119.209,0.151 	"/>
	<polygon points="113.368,22.848 116.561,22.848 116.561,0.151 113.368,0.151 	"/>
	<polygon points="34.892,22.848 34.892,14.072 38.722,0.151 37.669,0.151 34.317,12.529 30.871,0.151 27.552,0.151 31.7,14.072 
		31.7,22.848 	"/>
	<path d="M9.265,13.256c4.563,0,6.766-2.604,6.766-6.568c0-3.934-2.202-6.537-6.766-6.537H5.69v22.697h3.191v-9.592H9.265
		L9.265,13.256z M9.328,1.029c3.862,0,5.713,2.148,5.713,5.659c0,3.541-1.883,5.689-5.713,5.689H8.882V1.029H9.328L9.328,1.029z"/>
	<path d="M20.307,3.964c0-1.906,0.862-2.966,2.362-2.966c2.297,0,3.383,2.059,3.383,6.083h0.957C27.041,2.149,25.573,0,22.189,0
		c-2.808,0-4.786,1.906-4.786,5.023c0,6.112,7.021,7.474,7.021,13.769c0,2.147-1.596,3.207-3.031,3.207
		c-2.521,0-4.245-1.813-4.245-6.386H16.19C16.158,20.76,18.2,23,21.615,23c3.511,0,5.713-2.088,5.713-5.508
		C27.328,11.923,20.307,9.381,20.307,3.964L20.307,3.964z"/>
	<path d="M130.698,3.904c0-1.877,0.894-2.905,2.426-2.905c2.329,0,3.446,2.028,3.446,6.083h0.957C137.561,2.149,136.061,0,132.645,0
		c-2.84,0-4.852,1.906-4.852,5.023c0,6.234,6.99,7.625,6.99,14.042c0,1.664-0.895,2.935-2.713,2.935
		c-2.361,0-3.989-1.813-3.989-6.386h-0.957c-0.032,5.146,1.851,7.354,5.073,7.386c3.414,0.028,5.49-2.026,5.49-5.326
		C137.688,12.014,130.698,9.381,130.698,3.904L130.698,3.904L130.698,3.904z"/>
	<path d="M108.07,22.848h2.714V12.256h-5.873v0.848h2.682v4.328c0,3.389-1.054,4.568-2.426,4.568c-1.946,0-2.937-1.693-2.937-10.319
		c0-8.383,1.117-10.683,3.701-10.683c2.267,0,3.383,2.36,3.383,6.99h0.959C110.305,2.42,108.807,0,105.518,0
		c-4.147,0-6.638,4.267-6.638,11.681c0,7.749,2.297,11.319,5.904,11.319c1.627,0,2.776-1,3.095-2.088L108.07,22.848L108.07,22.848z"
		/>
	<path d="M1.95,22.813h2.446v-0.451H2.36V21.43h2.036v-0.453H1.95V22.813L1.95,22.813z M3.751,18.775
		c0.169,0.135,0.268,0.326,0.268,0.543c0,0.389-0.293,0.785-0.836,0.785c-0.451,0-0.854-0.304-0.854-0.769
		c0-0.084,0.018-0.349,0.274-0.562H2.046c-0.121,0.213-0.15,0.406-0.15,0.57c0,0.33,0.092,0.619,0.322,0.852
		c0.194,0.199,0.514,0.371,0.957,0.371c0.36,0,0.664-0.104,0.936-0.371c0.194-0.194,0.341-0.44,0.341-0.85
		c0-0.25-0.065-0.434-0.143-0.572H3.751V18.775z M1.95,18.324h2.446v-0.32L2.76,16.732h1.636v-0.453H1.95v0.32l1.628,1.273H1.95
		V18.324L1.95,18.324z M4.396,15.947v-0.541l-0.895-0.535l0.895-0.508V13.82l-1.291,0.793L1.95,13.9v0.543l0.76,0.428l-0.76,0.406
		v0.543l1.155-0.693L4.396,15.947L4.396,15.947z M1.896,12.496c0,0.73,0.535,1.236,1.279,1.236c0.745,0,1.276-0.506,1.276-1.236
		c0-0.731-0.531-1.238-1.276-1.238C2.431,11.258,1.896,11.765,1.896,12.496L1.896,12.496z M4.019,12.496
		c0,0.451-0.349,0.771-0.844,0.771c-0.495,0-0.847-0.32-0.847-0.771c0-0.453,0.352-0.772,0.847-0.772
		C3.67,11.724,4.019,12.043,4.019,12.496L4.019,12.496z M1.95,10.631h1.401c0.23,0,0.443-0.003,0.568,0.114
		c0.04,0.039,0.088,0.104,0.088,0.209c0,0.049-0.011,0.094-0.021,0.129h0.41c0.015-0.063,0.021-0.125,0.021-0.191
		c0-0.226-0.08-0.372-0.161-0.462c-0.224-0.258-0.557-0.25-0.811-0.25H2.36V9.505h2.036V9.053H1.95V10.631L1.95,10.631z
		 M1.896,7.408c0,0.729,0.535,1.237,1.279,1.237c0.745,0,1.276-0.508,1.276-1.237c0-0.73-0.531-1.238-1.276-1.238
		C2.431,6.169,1.896,6.677,1.896,7.408L1.896,7.408z M4.019,7.408c0,0.451-0.349,0.771-0.844,0.771c-0.495,0-0.847-0.32-0.847-0.771
		c0-0.453,0.352-0.772,0.847-0.772C3.67,6.636,4.019,6.955,4.019,7.408L4.019,7.408z M1.95,4.529v1.23h2.446V5.307H2.36V4.529H1.95
		L1.95,4.529z M1.95,4.203h2.446v-0.32L2.761,2.61h1.636V2.159H1.95v0.319L3.578,3.75H1.95V4.203L1.95,4.203z M1.95,0.151v0.672
		c0,0.194,0.019,0.414,0.188,0.594c0.113,0.122,0.301,0.23,0.568,0.23c0.282,0,0.484-0.123,0.59-0.262
		c0.055-0.072,0.096-0.166,0.11-0.254l0.99,0.688V1.278L3.45,0.686V0.603h0.946V0.151H1.95L1.95,0.151z M2.339,0.603h0.737v0.133
		c0,0.091,0,0.445-0.37,0.445c-0.363,0-0.367-0.354-0.367-0.439V0.603L2.339,0.603z"/>
</g>
</svg>
